<svg width="92" height="28" viewBox="0 0 92 28" fill="none" xmlns="http://www.w3.org/2000/svg">
<path d="M6.8 21.192C7.504 21.192 8.18667 21.0747 8.848 20.84C9.50933 20.5947 10.1013 20.2373 10.624 19.768C11.1573 19.288 11.5787 18.7013 11.888 18.008C12.1973 17.304 12.352 16.488 12.352 15.56V14.36H6.752V16.2H10.176V16.248C10.176 16.856 10.0213 17.384 9.712 17.832C9.40267 18.2693 8.992 18.6107 8.48 18.856C7.968 19.0907 7.408 19.208 6.8 19.208C6.05333 19.208 5.392 19.032 4.816 18.68C4.24 18.328 3.78667 17.8427 3.456 17.224C3.136 16.5947 2.976 15.864 2.976 15.032C2.976 14.2 3.136 13.4747 3.456 12.856C3.776 12.2267 4.21867 11.7413 4.784 11.4C5.34933 11.048 6.00533 10.872 6.752 10.872C7.50933 10.872 8.15467 11.064 8.688 11.448C9.22133 11.832 9.60533 12.3333 9.84 12.952L11.776 12.024C11.5733 11.4587 11.2373 10.9413 10.768 10.472C10.2987 9.992 9.72267 9.608 9.04 9.32C8.368 9.032 7.60533 8.888 6.752 8.888C5.89867 8.888 5.10933 9.04267 4.384 9.352C3.65867 9.65067 3.02933 10.0773 2.496 10.632C1.96267 11.176 1.54667 11.8267 1.248 12.584C0.949333 13.3307 0.8 14.1467 0.8 15.032C0.8 15.9173 0.949333 16.7387 1.248 17.496C1.55733 18.2427 1.984 18.8933 2.528 19.448C3.072 20.0027 3.70667 20.4347 4.432 20.744C5.15733 21.0427 5.94667 21.192 6.8 21.192ZM18.0259 21.192C18.9112 21.192 19.6845 20.9947 20.3459 20.6C21.0179 20.1947 21.4872 19.6827 21.7539 19.064L20.0579 18.232C19.8659 18.5627 19.5992 18.8347 19.2579 19.048C18.9272 19.2507 18.5219 19.352 18.0419 19.352C17.4125 19.352 16.8845 19.16 16.4579 18.776C16.0312 18.392 15.7859 17.88 15.7219 17.24H21.9939C22.0365 17.1227 22.0632 16.9893 22.0739 16.84C22.0952 16.68 22.1059 16.52 22.1059 16.36C22.1059 15.5813 21.9405 14.872 21.6099 14.232C21.2792 13.592 20.7992 13.08 20.1699 12.696C19.5405 12.3013 18.7725 12.104 17.8659 12.104C17.0552 12.104 16.3192 12.3013 15.6579 12.696C15.0072 13.0907 14.4899 13.6293 14.1059 14.312C13.7325 14.984 13.5459 15.7573 13.5459 16.632C13.5459 17.4747 13.7325 18.2427 14.1059 18.936C14.4792 19.6293 15.0019 20.1787 15.6739 20.584C16.3459 20.9893 17.1299 21.192 18.0259 21.192ZM17.8659 13.832C18.4205 13.832 18.8792 14.0027 19.2419 14.344C19.6152 14.6747 19.8232 15.1067 19.8659 15.64H15.7699C15.8872 15.064 16.1325 14.6213 16.5059 14.312C16.8899 13.992 17.3432 13.832 17.8659 13.832ZM27.6628 21.096C28.0148 21.096 28.3614 21.0693 28.7028 21.016V19.208C28.5001 19.24 28.3134 19.256 28.1428 19.256C27.6308 19.256 27.2574 19.1387 27.0228 18.904C26.7881 18.6693 26.6708 18.3333 26.6708 17.896V14.168H28.6708V12.296H26.6708V10.312H24.5748V10.984C24.5748 11.4107 24.4574 11.736 24.2228 11.96C23.9881 12.184 23.6574 12.296 23.2308 12.296H23.0708V14.168H24.5748V18.008C24.5748 18.9787 24.8414 19.736 25.3748 20.28C25.9188 20.824 26.6814 21.096 27.6628 21.096ZM37.5799 21.192C38.4012 21.192 39.1212 21.0427 39.7399 20.744C40.3585 20.4453 40.8439 20.0347 41.1959 19.512C41.5479 18.9893 41.7239 18.3867 41.7239 17.704C41.7239 16.1147 40.7745 15.016 38.8759 14.408L36.6839 13.72C36.2572 13.5813 35.9319 13.3893 35.7079 13.144C35.4945 12.888 35.3879 12.5947 35.3879 12.264C35.3879 11.8267 35.5532 11.4747 35.8839 11.208C36.2252 10.9307 36.6732 10.792 37.2279 10.792C37.8465 10.792 38.3905 10.9573 38.8599 11.288C39.3292 11.608 39.6812 12.0667 39.9159 12.664L41.7079 11.864C41.3879 10.968 40.8279 10.248 40.0279 9.704C39.2385 9.16 38.3052 8.888 37.2279 8.888C36.4492 8.888 35.7559 9.03733 35.1479 9.336C34.5505 9.624 34.0812 10.0293 33.7399 10.552C33.4092 11.0747 33.2439 11.6773 33.2439 12.36C33.2439 13.1387 33.4785 13.816 33.9479 14.392C34.4172 14.9573 35.1159 15.3893 36.0439 15.688L38.3319 16.424C38.7479 16.5627 39.0572 16.744 39.2599 16.968C39.4732 17.192 39.5799 17.48 39.5799 17.832C39.5799 18.2693 39.4039 18.6213 39.0519 18.888C38.7105 19.1547 38.2572 19.288 37.6919 19.288C37.0092 19.288 36.3959 19.096 35.8519 18.712C35.3079 18.3173 34.8919 17.7787 34.6039 17.096L32.7959 17.88C33.0092 18.5413 33.3452 19.1227 33.8039 19.624C34.2732 20.1147 34.8279 20.4987 35.4679 20.776C36.1185 21.0533 36.8225 21.192 37.5799 21.192ZM47.4753 21.096C47.8273 21.096 48.1739 21.0693 48.5153 21.016V19.208C48.3126 19.24 48.1259 19.256 47.9553 19.256C47.4433 19.256 47.0699 19.1387 46.8353 18.904C46.6006 18.6693 46.4833 18.3333 46.4833 17.896V14.168H48.4833V12.296H46.4833V10.312H44.3873V10.984C44.3873 11.4107 44.2699 11.736 44.0353 11.96C43.8006 12.184 43.4699 12.296 43.0433 12.296H42.8833V14.168H44.3873V18.008C44.3873 18.9787 44.6539 19.736 45.1873 20.28C45.7313 20.824 46.4939 21.096 47.4753 21.096ZM52.7098 21.192C53.8404 21.192 54.7471 20.8187 55.4298 20.072V21H57.4138V15.208C57.4138 14.6 57.2591 14.0613 56.9498 13.592C56.6404 13.1227 56.2138 12.76 55.6698 12.504C55.1364 12.2373 54.5124 12.104 53.7977 12.104C52.9231 12.104 52.1444 12.312 51.4618 12.728C50.7791 13.144 50.3098 13.6933 50.0538 14.376L51.7658 15.208C51.9258 14.8133 52.1764 14.4987 52.5178 14.264C52.8591 14.0187 53.2591 13.896 53.7178 13.896C54.1978 13.896 54.5818 14.024 54.8698 14.28C55.1684 14.5253 55.3178 14.8347 55.3178 15.208V15.496L52.7258 15.912C51.7018 16.0827 50.9444 16.408 50.4538 16.888C49.9631 17.368 49.7178 17.9707 49.7178 18.696C49.7178 19.464 49.9898 20.072 50.5338 20.52C51.0778 20.968 51.8031 21.192 52.7098 21.192ZM51.8938 18.616C51.8938 18.008 52.3044 17.624 53.1258 17.464L55.3178 17.096V17.448C55.3178 18.0453 55.1098 18.552 54.6938 18.968C54.2884 19.384 53.7551 19.592 53.0938 19.592C52.7418 19.592 52.4538 19.5067 52.2298 19.336C52.0058 19.1547 51.8938 18.9147 51.8938 18.616ZM59.351 21H61.447V16.152C61.447 15.4907 61.6283 14.9787 61.991 14.616C62.3643 14.2427 62.8443 14.056 63.431 14.056H64.183V12.2H63.671C63.1377 12.2 62.6683 12.296 62.263 12.488C61.8577 12.68 61.543 13.0267 61.319 13.528V12.296H59.351V21ZM69.5378 21.096C69.8898 21.096 70.2364 21.0693 70.5778 21.016V19.208C70.3751 19.24 70.1884 19.256 70.0178 19.256C69.5058 19.256 69.1324 19.1387 68.8978 18.904C68.6631 18.6693 68.5458 18.3333 68.5458 17.896V14.168H70.5458V12.296H68.5458V10.312H66.4498V10.984C66.4498 11.4107 66.3324 11.736 66.0978 11.96C65.8631 12.184 65.5324 12.296 65.1058 12.296H64.9458V14.168H66.4498V18.008C66.4498 18.9787 66.7164 19.736 67.2498 20.28C67.7938 20.824 68.5564 21.096 69.5378 21.096ZM76.229 21.192C77.1143 21.192 77.8877 20.9947 78.549 20.6C79.221 20.1947 79.6903 19.6827 79.957 19.064L78.261 18.232C78.069 18.5627 77.8023 18.8347 77.461 19.048C77.1303 19.2507 76.725 19.352 76.245 19.352C75.6157 19.352 75.0877 19.16 74.661 18.776C74.2343 18.392 73.989 17.88 73.925 17.24H80.197C80.2397 17.1227 80.2663 16.9893 80.277 16.84C80.2983 16.68 80.309 16.52 80.309 16.36C80.309 15.5813 80.1437 14.872 79.813 14.232C79.4823 13.592 79.0023 13.08 78.373 12.696C77.7437 12.3013 76.9757 12.104 76.069 12.104C75.2583 12.104 74.5223 12.3013 73.861 12.696C73.2103 13.0907 72.693 13.6293 72.309 14.312C71.9357 14.984 71.749 15.7573 71.749 16.632C71.749 17.4747 71.9357 18.2427 72.309 18.936C72.6823 19.6293 73.205 20.1787 73.877 20.584C74.549 20.9893 75.333 21.192 76.229 21.192ZM76.069 13.832C76.6237 13.832 77.0823 14.0027 77.445 14.344C77.8183 14.6747 78.0263 15.1067 78.069 15.64H73.973C74.0903 15.064 74.3357 14.6213 74.709 14.312C75.093 13.992 75.5463 13.832 76.069 13.832ZM85.9459 21.192C86.5112 21.192 87.0339 21.096 87.5139 20.904C87.9939 20.7013 88.3939 20.4133 88.7139 20.04V21H90.6979V8.888H88.6019V13.176C87.9512 12.4613 87.0605 12.104 85.9299 12.104C85.1085 12.104 84.3619 12.3067 83.6899 12.712C83.0285 13.1067 82.5059 13.6507 82.1219 14.344C81.7379 15.0267 81.5459 15.7947 81.5459 16.648C81.5459 17.5013 81.7379 18.2747 82.1219 18.968C82.5059 19.6507 83.0285 20.1947 83.6899 20.6C84.3512 20.9947 85.1032 21.192 85.9459 21.192ZM86.1699 19.272C85.7005 19.272 85.2792 19.16 84.9059 18.936C84.5325 18.712 84.2392 18.4027 84.0259 18.008C83.8232 17.6027 83.7219 17.1493 83.7219 16.648C83.7219 16.1467 83.8232 15.6987 84.0259 15.304C84.2392 14.9093 84.5325 14.6 84.9059 14.376C85.2792 14.1413 85.7005 14.024 86.1699 14.024C86.6392 14.024 87.0552 14.136 87.4179 14.36C87.7912 14.584 88.0792 14.8933 88.2819 15.288C88.4952 15.6827 88.6019 16.136 88.6019 16.648C88.6019 17.16 88.4952 17.6133 88.2819 18.008C88.0792 18.4027 87.7912 18.712 87.4179 18.936C87.0552 19.16 86.6392 19.272 86.1699 19.272Z" fill="white"/>
</svg>
