<svg width="323" height="91" viewBox="0 0 323 91" fill="none" xmlns="http://www.w3.org/2000/svg">
<path d="M0.64 31H6.84V11.36L15.84 23.4H16.64L25.64 11.8V31H31.84V1.2H25.84L16.36 14.12L6.64 1.2H0.64V31ZM43.4444 31.48C46.1644 31.48 48.351 30.64 50.0044 28.96V31H55.6044V16.6C55.6044 15.0267 55.2044 13.6533 54.4044 12.48C53.631 11.28 52.5377 10.3467 51.1244 9.68C49.711 9.01333 48.0844 8.68 46.2444 8.68C43.9244 8.68 41.8844 9.21333 40.1244 10.28C38.391 11.3467 37.2044 12.7867 36.5644 14.6L41.3644 16.88C41.7377 15.92 42.3244 15.1467 43.1244 14.56C43.951 13.9733 44.8977 13.68 45.9644 13.68C47.0844 13.68 47.9644 13.96 48.6044 14.52C49.271 15.08 49.6044 15.7733 49.6044 16.6V17.2L43.5644 18.16C40.951 18.5867 39.0044 19.4 37.7244 20.6C36.4444 21.8 35.8044 23.32 35.8044 25.16C35.8044 27.1333 36.4844 28.68 37.8444 29.8C39.231 30.92 41.0977 31.48 43.4444 31.48ZM42.0044 24.96C42.0044 24.24 42.231 23.6933 42.6844 23.32C43.1377 22.92 43.791 22.64 44.6444 22.48L49.6044 21.6V22.28C49.6044 23.6133 49.151 24.7467 48.2444 25.68C47.3377 26.6133 46.1377 27.08 44.6444 27.08C43.8977 27.08 43.271 26.8933 42.7644 26.52C42.2577 26.1467 42.0044 25.6267 42.0044 24.96ZM58.2847 31H65.2447L69.4447 24.68L73.6447 31H80.5647L72.9647 20.04L80.6447 9.16H73.6847L69.4447 15.4L65.2047 9.16H58.2447L65.9247 20.04L58.2847 31ZM83.2859 7.2H89.2859V1.2H83.2859V7.2ZM83.2859 31H89.2859V9.16H83.2859V31ZM93.6766 31H99.6766V18.24C99.6766 16.9867 100.01 15.9867 100.677 15.24C101.37 14.4667 102.303 14.08 103.477 14.08C104.65 14.08 105.57 14.4667 106.237 15.24C106.93 15.9867 107.277 16.9867 107.277 18.24V31H113.277V18.24C113.277 16.9867 113.61 15.9867 114.277 15.24C114.97 14.4667 115.903 14.08 117.077 14.08C118.25 14.08 119.17 14.4667 119.837 15.24C120.53 15.9867 120.877 16.9867 120.877 18.24V31H126.877V16.96C126.877 15.3067 126.53 13.8667 125.837 12.64C125.143 11.3867 124.183 10.4133 122.957 9.72C121.757 9.02667 120.37 8.68 118.797 8.68C117.383 8.68 116.09 8.96 114.917 9.52C113.77 10.0533 112.81 10.8933 112.037 12.04C111.423 11 110.517 10.1867 109.317 9.6C108.143 8.98667 106.837 8.68 105.397 8.68C104.01 8.68 102.783 8.94667 101.717 9.48C100.65 9.98666 99.8366 10.7733 99.2766 11.84V9.16H93.6766V31ZM130.825 7.2H136.825V1.2H130.825V7.2ZM130.825 31H136.825V9.16H130.825V31ZM139.456 31H158.256V25.8H147.776L158.216 13.96V9.16H139.976V14.36H150.216L139.456 26.2V31ZM171.423 31.48C173.663 31.48 175.623 31 177.303 30.04C178.983 29.0533 180.156 27.76 180.823 26.16L176.023 23.88C175.596 24.6267 174.996 25.2133 174.223 25.64C173.476 26.0667 172.57 26.28 171.503 26.28C170.036 26.28 168.836 25.8667 167.903 25.04C166.97 24.2133 166.423 23.12 166.263 21.76H181.543C181.65 21.4667 181.716 21.12 181.743 20.72C181.796 20.2933 181.823 19.8667 181.823 19.44C181.823 17.4133 181.396 15.6 180.543 14C179.716 12.3733 178.503 11.08 176.903 10.12C175.303 9.16 173.343 8.68 171.023 8.68C168.943 8.68 167.076 9.17333 165.423 10.16C163.77 11.1467 162.45 12.4933 161.463 14.2C160.503 15.9067 160.023 17.8533 160.023 20.04C160.023 22.1467 160.49 24.0667 161.423 25.8C162.356 27.5333 163.676 28.92 165.383 29.96C167.09 30.9733 169.103 31.48 171.423 31.48ZM171.023 13.48C172.25 13.48 173.263 13.84 174.063 14.56C174.863 15.28 175.33 16.2133 175.463 17.36H166.383C166.676 16.1067 167.223 15.1467 168.023 14.48C168.85 13.8133 169.85 13.48 171.023 13.48ZM201.104 31.48C203.637 31.48 205.677 30.8533 207.224 29.6C208.77 28.3467 209.544 26.7067 209.544 24.68C209.544 23.1067 209.064 21.7867 208.104 20.72C207.144 19.6267 205.757 18.8133 203.944 18.28L200.464 17.24C198.89 16.7867 198.104 16.1333 198.104 15.28C198.104 14.72 198.317 14.28 198.744 13.96C199.197 13.64 199.81 13.48 200.584 13.48C201.65 13.48 202.597 13.76 203.424 14.32C204.277 14.8533 204.864 15.5733 205.184 16.48L209.624 14.4C208.957 12.5867 207.81 11.1867 206.184 10.2C204.584 9.18667 202.717 8.68 200.584 8.68C198.957 8.68 197.517 8.97333 196.264 9.56C195.01 10.12 194.037 10.9067 193.344 11.92C192.65 12.9333 192.304 14.12 192.304 15.48C192.304 17.0267 192.784 18.3733 193.744 19.52C194.704 20.64 196.077 21.4533 197.864 21.96L201.584 23C203.024 23.4 203.744 24.04 203.744 24.92C203.744 26.2267 202.864 26.88 201.104 26.88C199.93 26.88 198.864 26.5467 197.904 25.88C196.944 25.2133 196.184 24.2933 195.624 23.12L191.224 25.2C191.864 27.12 193.064 28.6533 194.824 29.8C196.61 30.92 198.704 31.48 201.104 31.48ZM213.13 31H219.13V24.32L221.53 21.68L227.09 31H233.89L226.01 17.96L233.93 9.16H226.53L219.13 17.04V0.719999H213.13V31ZM236.567 7.2H242.567V1.2H236.567V7.2ZM236.567 31H242.567V9.16H236.567V31ZM246.958 31H252.958V0.719999H246.958V31ZM257.348 31H263.348V0.719999H257.348V31ZM269.939 37.6C274.472 36.6667 276.739 33.6267 276.739 28.48V25H270.739V31H273.419C273.232 31.9867 272.832 32.7733 272.219 33.36C271.632 33.9733 270.872 34.3867 269.939 34.6V37.6ZM0.2 82H6.2V69.24C6.2 67.9867 6.53333 66.9867 7.2 66.24C7.89333 65.4667 8.82667 65.08 10 65.08C11.1733 65.08 12.0933 65.4667 12.76 66.24C13.4533 66.9867 13.8 67.9867 13.8 69.24V82H19.8V69.24C19.8 67.9867 20.1333 66.9867 20.8 66.24C21.4933 65.4667 22.4267 65.08 23.6 65.08C24.7733 65.08 25.6933 65.4667 26.36 66.24C27.0533 66.9867 27.4 67.9867 27.4 69.24V82H33.4V67.96C33.4 66.3067 33.0533 64.8667 32.36 63.64C31.6667 62.3867 30.7067 61.4133 29.48 60.72C28.28 60.0267 26.8933 59.68 25.32 59.68C23.9067 59.68 22.6133 59.96 21.44 60.52C20.2933 61.0533 19.3333 61.8933 18.56 63.04C17.9467 62 17.04 61.1867 15.84 60.6C14.6667 59.9867 13.36 59.68 11.92 59.68C10.5333 59.68 9.30667 59.9467 8.24 60.48C7.17333 60.9867 6.36 61.7733 5.8 62.84V60.16H0.2V82ZM37.3484 58.2H43.3484V52.2H37.3484V58.2ZM37.3484 82H43.3484V60.16H37.3484V82ZM47.7391 82H53.7391V69.24C53.7391 67.9867 54.1124 66.9867 54.8591 66.24C55.6057 65.4667 56.5657 65.08 57.7391 65.08C58.9124 65.08 59.8724 65.4667 60.6191 66.24C61.3657 66.9867 61.7391 67.9867 61.7391 69.24V82H67.7391V67.96C67.7391 66.3067 67.3924 64.8667 66.6991 63.64C66.0057 62.3867 65.0324 61.4133 63.7791 60.72C62.5524 60.0267 61.1124 59.68 59.4591 59.68C58.0724 59.68 56.8457 59.9467 55.7791 60.48C54.7124 60.9867 53.8991 61.7733 53.3391 62.84V60.16H47.7391V82ZM71.6844 58.2H77.6844V52.2H71.6844V58.2ZM71.6844 82H77.6844V60.16H71.6844V82ZM82.075 82H88.075V69.24C88.075 67.9867 88.4083 66.9867 89.075 66.24C89.7683 65.4667 90.7017 65.08 91.875 65.08C93.0483 65.08 93.9683 65.4667 94.635 66.24C95.3283 66.9867 95.675 67.9867 95.675 69.24V82H101.675V69.24C101.675 67.9867 102.008 66.9867 102.675 66.24C103.368 65.4667 104.302 65.08 105.475 65.08C106.648 65.08 107.568 65.4667 108.235 66.24C108.928 66.9867 109.275 67.9867 109.275 69.24V82H115.275V67.96C115.275 66.3067 114.928 64.8667 114.235 63.64C113.542 62.3867 112.582 61.4133 111.355 60.72C110.155 60.0267 108.768 59.68 107.195 59.68C105.782 59.68 104.488 59.96 103.315 60.52C102.168 61.0533 101.208 61.8933 100.435 63.04C99.8217 62 98.915 61.1867 97.715 60.6C96.5417 59.9867 95.235 59.68 93.795 59.68C92.4083 59.68 91.1817 59.9467 90.115 60.48C89.0483 60.9867 88.235 61.7733 87.675 62.84V60.16H82.075V82ZM119.223 58.2H125.223V52.2H119.223V58.2ZM119.223 82H125.223V60.16H119.223V82ZM127.854 82H146.654V76.8H136.174L146.614 64.96V60.16H128.374V65.36H138.614L127.854 77.2V82ZM159.822 82.48C162.062 82.48 164.022 82 165.702 81.04C167.382 80.0533 168.555 78.76 169.222 77.16L164.422 74.88C163.995 75.6267 163.395 76.2133 162.622 76.64C161.875 77.0667 160.968 77.28 159.902 77.28C158.435 77.28 157.235 76.8667 156.302 76.04C155.368 75.2133 154.822 74.12 154.662 72.76H169.942C170.048 72.4667 170.115 72.12 170.142 71.72C170.195 71.2933 170.222 70.8667 170.222 70.44C170.222 68.4133 169.795 66.6 168.942 65C168.115 63.3733 166.902 62.08 165.302 61.12C163.702 60.16 161.742 59.68 159.422 59.68C157.342 59.68 155.475 60.1733 153.822 61.16C152.168 62.1467 150.848 63.4933 149.862 65.2C148.902 66.9067 148.422 68.8533 148.422 71.04C148.422 73.1467 148.888 75.0667 149.822 76.8C150.755 78.5333 152.075 79.92 153.782 80.96C155.488 81.9733 157.502 82.48 159.822 82.48ZM159.422 64.48C160.648 64.48 161.662 64.84 162.462 65.56C163.262 66.28 163.728 67.2133 163.862 68.36H154.782C155.075 67.1067 155.622 66.1467 156.422 65.48C157.248 64.8133 158.248 64.48 159.422 64.48ZM193.182 82.48C195.316 82.48 197.222 81.9733 198.902 80.96C200.582 79.9467 201.902 78.5733 202.862 76.84C203.849 75.1067 204.342 73.1867 204.342 71.08C204.342 68.9467 203.849 67.0267 202.862 65.32C201.876 63.5867 200.542 62.2133 198.862 61.2C197.182 60.1867 195.302 59.68 193.222 59.68C190.582 59.68 188.489 60.4533 186.942 62V51.72H180.942V82H186.542V79.92C187.316 80.7467 188.276 81.3867 189.422 81.84C190.596 82.2667 191.849 82.48 193.182 82.48ZM192.462 77.08C190.836 77.08 189.502 76.5333 188.462 75.44C187.449 74.32 186.942 72.8667 186.942 71.08C186.942 69.32 187.449 67.88 188.462 66.76C189.502 65.64 190.836 65.08 192.462 65.08C194.116 65.08 195.476 65.6533 196.542 66.8C197.609 67.92 198.142 69.3467 198.142 71.08C198.142 72.84 197.609 74.28 196.542 75.4C195.476 76.52 194.116 77.08 192.462 77.08ZM215.696 82.48C217.083 82.48 218.31 82.2267 219.376 81.72C220.443 81.1867 221.256 80.3867 221.816 79.32V82H227.416V60.16H221.416V72.92C221.416 74.1733 221.043 75.1867 220.296 75.96C219.55 76.7067 218.59 77.08 217.416 77.08C216.243 77.08 215.283 76.7067 214.536 75.96C213.79 75.1867 213.416 74.1733 213.416 72.92V60.16H207.416V73.4C207.416 76.12 208.123 78.32 209.536 80C210.976 81.6533 213.03 82.48 215.696 82.48ZM242.082 82.48C243.415 82.48 244.655 82.2667 245.802 81.84C246.975 81.3867 247.948 80.7467 248.722 79.92V82H254.322V51.72H248.322V62C246.775 60.4533 244.682 59.68 242.042 59.68C239.962 59.68 238.082 60.1867 236.402 61.2C234.722 62.2133 233.388 63.5867 232.402 65.32C231.415 67.0267 230.922 68.9467 230.922 71.08C230.922 73.1867 231.402 75.1067 232.362 76.84C233.348 78.5733 234.682 79.9467 236.362 80.96C238.042 81.9733 239.948 82.48 242.082 82.48ZM242.802 77.08C241.148 77.08 239.788 76.52 238.722 75.4C237.655 74.28 237.122 72.84 237.122 71.08C237.122 69.3467 237.655 67.92 238.722 66.8C239.788 65.6533 241.148 65.08 242.802 65.08C244.428 65.08 245.748 65.64 246.762 66.76C247.802 67.88 248.322 69.32 248.322 71.08C248.322 72.8667 247.802 74.32 246.762 75.44C245.748 76.5333 244.428 77.08 242.802 77.08ZM269.436 90.8C271.542 90.8 273.396 90.3733 274.996 89.52C276.622 88.6667 277.902 87.48 278.836 85.96C279.769 84.4667 280.236 82.76 280.236 80.84V60.16H274.636V62.44C273.089 60.6 270.969 59.68 268.276 59.68C266.276 59.68 264.489 60.1333 262.916 61.04C261.342 61.9467 260.102 63.2 259.196 64.8C258.289 66.3733 257.836 68.1867 257.836 70.24C257.836 72.2933 258.289 74.1333 259.196 75.76C260.102 77.36 261.356 78.6267 262.956 79.56C264.556 80.4667 266.369 80.92 268.396 80.92C270.849 80.92 272.796 80.2 274.236 78.76V80.84C274.236 82.2533 273.809 83.36 272.956 84.16C272.102 84.9867 270.929 85.4 269.436 85.4C268.182 85.4 267.102 85.1067 266.196 84.52C265.289 83.9333 264.689 83.1333 264.396 82.12L258.836 84.08C259.289 85.44 260.022 86.6133 261.036 87.6C262.076 88.6133 263.316 89.4 264.756 89.96C266.196 90.52 267.756 90.8 269.436 90.8ZM269.236 75.48C267.716 75.48 266.462 75 265.476 74.04C264.516 73.08 264.036 71.84 264.036 70.32C264.036 68.7733 264.516 67.52 265.476 66.56C266.462 65.5733 267.716 65.08 269.236 65.08C270.729 65.08 271.929 65.56 272.836 66.52C273.769 67.48 274.236 68.7467 274.236 70.32C274.236 71.8667 273.769 73.12 272.836 74.08C271.929 75.0133 270.729 75.48 269.236 75.48ZM295.173 82.48C297.413 82.48 299.373 82 301.053 81.04C302.733 80.0533 303.906 78.76 304.573 77.16L299.773 74.88C299.346 75.6267 298.746 76.2133 297.973 76.64C297.226 77.0667 296.32 77.28 295.253 77.28C293.786 77.28 292.586 76.8667 291.653 76.04C290.72 75.2133 290.173 74.12 290.013 72.76H305.293C305.4 72.4667 305.466 72.12 305.493 71.72C305.546 71.2933 305.573 70.8667 305.573 70.44C305.573 68.4133 305.146 66.6 304.293 65C303.466 63.3733 302.253 62.08 300.653 61.12C299.053 60.16 297.093 59.68 294.773 59.68C292.693 59.68 290.826 60.1733 289.173 61.16C287.52 62.1467 286.2 63.4933 285.213 65.2C284.253 66.9067 283.773 68.8533 283.773 71.04C283.773 73.1467 284.24 75.0667 285.173 76.8C286.106 78.5333 287.426 79.92 289.133 80.96C290.84 81.9733 292.853 82.48 295.173 82.48ZM294.773 64.48C296 64.48 297.013 64.84 297.813 65.56C298.613 66.28 299.08 67.2133 299.213 68.36H290.133C290.426 67.1067 290.973 66.1467 291.773 65.48C292.6 64.8133 293.6 64.48 294.773 64.48ZM319.626 82.24C320.613 82.24 321.546 82.1733 322.426 82.04V76.92C321.866 77 321.4 77.04 321.026 77.04C318.546 77.04 317.306 75.9333 317.306 73.72V65.36H322.426V60.16H317.306V55.2H311.306V56.8C311.306 59.04 310.146 60.16 307.826 60.16H307.626V65.36H311.306V74.12C311.306 76.68 312.026 78.68 313.466 80.12C314.933 81.5333 316.986 82.24 319.626 82.24Z" fill="#13183F"/>
</svg>
