<svg width="336" height="69" viewBox="0 0 336 69" fill="none" xmlns="http://www.w3.org/2000/svg">
<path d="M7.024 13.192C7.87733 13.192 8.66667 13.0427 9.392 12.744C10.128 12.4347 10.7733 12.0027 11.328 11.448C11.8827 10.8933 12.3147 10.2427 12.624 9.496C12.9333 8.74933 13.088 7.928 13.088 7.032C13.088 6.14667 12.9333 5.33067 12.624 4.584C12.3147 3.82667 11.8827 3.176 11.328 2.632C10.7733 2.07733 10.128 1.65067 9.392 1.352C8.66667 1.04267 7.87733 0.888 7.024 0.888C6.18133 0.888 5.392 1.04267 4.656 1.352C3.92 1.65067 3.27467 2.07733 2.72 2.632C2.176 3.176 1.74933 3.82133 1.44 4.568C1.13067 5.31467 0.976 6.136 0.976 7.032C0.976 7.928 1.13067 8.74933 1.44 9.496C1.74933 10.2427 2.18133 10.8933 2.736 11.448C3.29067 12.0027 3.93067 12.4347 4.656 12.744C5.392 13.0427 6.18133 13.192 7.024 13.192ZM7.024 11.736C6.16 11.736 5.38667 11.528 4.704 11.112C4.032 10.6853 3.504 10.12 3.12 9.416C2.736 8.70133 2.544 7.90667 2.544 7.032C2.544 6.15733 2.736 5.368 3.12 4.664C3.504 3.96 4.032 3.4 4.704 2.984C5.376 2.55733 6.14933 2.344 7.024 2.344C7.89867 2.344 8.672 2.55733 9.344 2.984C10.016 3.4 10.544 3.96 10.928 4.664C11.312 5.368 11.504 6.15733 11.504 7.032C11.504 7.90667 11.312 8.70133 10.928 9.416C10.544 10.12 10.016 10.6853 9.344 11.112C8.672 11.528 7.89867 11.736 7.024 11.736ZM18.2549 13.192C18.7882 13.192 19.2682 13.0853 19.6949 12.872C20.1215 12.648 20.4629 12.3387 20.7189 11.944V13H22.1749V4.376H20.6709V9.48C20.6709 10.184 20.4735 10.7387 20.0789 11.144C19.6949 11.5493 19.1989 11.752 18.5909 11.752C17.9722 11.752 17.4709 11.56 17.0869 11.176C16.7029 10.7813 16.5109 10.2587 16.5109 9.608V4.376H15.0229V9.768C15.0229 10.44 15.1615 11.0373 15.4389 11.56C15.7162 12.072 16.0949 12.472 16.5749 12.76C17.0655 13.048 17.6255 13.192 18.2549 13.192ZM24.4801 13H25.9681V7.864C25.9681 7.17067 26.1548 6.63733 26.5281 6.264C26.9015 5.88 27.3921 5.688 28.0001 5.688H28.7521V4.28H28.2241C27.6908 4.28 27.2321 4.376 26.8481 4.568C26.4641 4.74933 26.1601 5.02667 25.9361 5.4V4.376H24.4801V13ZM32.8395 13H34.3275V7.896C34.3275 7.192 34.5195 6.63733 34.9035 6.232C35.2875 5.82667 35.7675 5.624 36.3435 5.624C36.9302 5.624 37.4048 5.82667 37.7675 6.232C38.1408 6.62667 38.3275 7.18133 38.3275 7.896V13H39.8315V7.896C39.8315 7.192 40.0182 6.63733 40.3915 6.232C40.7755 5.82667 41.2608 5.624 41.8475 5.624C42.4235 5.624 42.8982 5.82667 43.2715 6.232C43.6448 6.62667 43.8315 7.18133 43.8315 7.896V13H45.3355V7.416C45.3355 6.79733 45.1915 6.248 44.9035 5.768C44.6155 5.27733 44.2262 4.89333 43.7355 4.616C43.2555 4.328 42.7168 4.184 42.1195 4.184C41.5435 4.184 41.0155 4.31733 40.5355 4.584C40.0662 4.85067 39.6928 5.24 39.4155 5.752C39.1595 5.272 38.7862 4.89333 38.2955 4.616C37.8155 4.328 37.2822 4.184 36.6955 4.184C36.1835 4.184 35.7142 4.296 35.2875 4.52C34.8715 4.73333 34.5408 5.04267 34.2955 5.448V4.376H32.8395V13ZM51.5449 13.192C52.3555 13.192 53.0969 13 53.7689 12.616C54.4409 12.232 54.9742 11.6987 55.3689 11.016C55.7742 10.3333 55.9769 9.55467 55.9769 8.68C55.9769 7.816 55.7795 7.048 55.3849 6.376C55.0009 5.69333 54.4729 5.16 53.8009 4.776C53.1289 4.38133 52.3769 4.184 51.5449 4.184C50.7022 4.184 49.9449 4.38133 49.2729 4.776C48.6009 5.16 48.0675 5.69333 47.6729 6.376C47.2889 7.048 47.0969 7.816 47.0969 8.68C47.0969 9.544 47.2942 10.3173 47.6889 11C48.0835 11.6827 48.6169 12.2213 49.2889 12.616C49.9609 13 50.7129 13.192 51.5449 13.192ZM51.5449 11.752C51.0009 11.752 50.5102 11.6187 50.0729 11.352C49.6462 11.0853 49.3049 10.7227 49.0489 10.264C48.7929 9.79467 48.6649 9.26667 48.6649 8.68C48.6649 8.09333 48.7929 7.57067 49.0489 7.112C49.3049 6.65333 49.6462 6.29067 50.0729 6.024C50.5102 5.75733 51.0009 5.624 51.5449 5.624C52.0782 5.624 52.5582 5.75733 52.9849 6.024C53.4222 6.29067 53.7635 6.65333 54.0089 7.112C54.2649 7.57067 54.3929 8.09333 54.3929 8.68C54.3929 9.26667 54.2649 9.79467 54.0089 10.264C53.7635 10.7227 53.4222 11.0853 52.9849 11.352C52.5582 11.6187 52.0782 11.752 51.5449 11.752ZM61.8376 13.192C62.4776 13.192 63.059 13.0693 63.5816 12.824C64.115 12.568 64.5416 12.2053 64.8616 11.736V13H66.3176V0.888H64.8136V5.528C64.483 5.10133 64.0616 4.77067 63.5496 4.536C63.0376 4.30133 62.467 4.184 61.8376 4.184C61.027 4.184 60.2963 4.38133 59.6456 4.776C59.0056 5.17067 58.499 5.70933 58.1256 6.392C57.7523 7.064 57.5656 7.832 57.5656 8.696C57.5656 9.54933 57.7523 10.3173 58.1256 11C58.499 11.672 59.0056 12.2053 59.6456 12.6C60.2963 12.9947 61.027 13.192 61.8376 13.192ZM61.9656 11.752C61.4216 11.752 60.9363 11.6187 60.5096 11.352C60.083 11.0853 59.747 10.7227 59.5016 10.264C59.2563 9.79467 59.1336 9.272 59.1336 8.696C59.1336 8.10933 59.2563 7.58667 59.5016 7.128C59.747 6.65867 60.083 6.29067 60.5096 6.024C60.947 5.75733 61.4323 5.624 61.9656 5.624C62.5096 5.624 62.995 5.76267 63.4216 6.04C63.8483 6.30667 64.1843 6.66933 64.4296 7.128C64.6856 7.58667 64.8136 8.10933 64.8136 8.696C64.8136 9.272 64.6856 9.79467 64.4296 10.264C64.1843 10.7227 63.8483 11.0853 63.4216 11.352C62.995 11.6187 62.5096 11.752 61.9656 11.752ZM72.5888 13.192C73.4741 13.192 74.2421 12.984 74.8928 12.568C75.5434 12.152 76.0021 11.6453 76.2688 11.048L75.0208 10.408C74.7754 10.824 74.4554 11.1653 74.0608 11.432C73.6661 11.6987 73.1808 11.832 72.6048 11.832C72.1248 11.832 71.6768 11.7253 71.2608 11.512C70.8554 11.288 70.5194 10.9733 70.2528 10.568C69.9968 10.1627 69.8581 9.68267 69.8368 9.128H76.4288C76.4821 8.84 76.5087 8.57333 76.5087 8.328C76.5087 7.61333 76.3488 6.94133 76.0288 6.312C75.7088 5.68267 75.2448 5.17067 74.6368 4.776C74.0394 4.38133 73.3141 4.184 72.4608 4.184C71.6608 4.184 70.9461 4.376 70.3168 4.76C69.6874 5.144 69.1861 5.67733 68.8128 6.36C68.4501 7.032 68.2688 7.8 68.2688 8.664C68.2688 9.528 68.4554 10.3013 68.8288 10.984C69.2021 11.6667 69.7141 12.2053 70.3648 12.6C71.0154 12.9947 71.7568 13.192 72.5888 13.192ZM72.4608 5.512C72.8981 5.512 73.2981 5.61333 73.6608 5.816C74.0234 6.008 74.3168 6.28 74.5408 6.632C74.7648 6.984 74.8821 7.38933 74.8928 7.848H69.8688C69.9754 7.12267 70.2741 6.552 70.7648 6.136C71.2554 5.72 71.8208 5.512 72.4608 5.512ZM78.4489 13H79.9369V7.864C79.9369 7.17067 80.1235 6.63733 80.4969 6.264C80.8702 5.88 81.3609 5.688 81.9689 5.688H82.7209V4.28H82.1929C81.6595 4.28 81.2009 4.376 80.8169 4.568C80.4329 4.74933 80.1289 5.02667 79.9049 5.4V4.376H78.4489V13ZM84.0426 13H85.5306V7.896C85.5306 7.192 85.728 6.63733 86.1226 6.232C86.5173 5.82667 87.0186 5.624 87.6266 5.624C88.2346 5.624 88.7306 5.82667 89.1146 6.232C89.4986 6.62667 89.6906 7.18133 89.6906 7.896V13H91.1946V7.416C91.1946 6.79733 91.0506 6.248 90.7626 5.768C90.4853 5.27733 90.1013 4.89333 89.6106 4.616C89.1306 4.328 88.5813 4.184 87.9626 4.184C87.4293 4.184 86.9493 4.296 86.5226 4.52C86.096 4.73333 85.7546 5.03733 85.4986 5.432V4.376H84.0426V13ZM100.09 13.192C100.655 13.192 101.183 13.0907 101.674 12.888C102.175 12.6853 102.607 12.408 102.97 12.056C103.332 11.704 103.604 11.3093 103.786 10.872L102.458 10.2C102.255 10.6693 101.946 11.048 101.53 11.336C101.124 11.6133 100.644 11.752 100.09 11.752C99.5668 11.752 99.0922 11.6187 98.6655 11.352C98.2495 11.0853 97.9188 10.7227 97.6735 10.264C97.4282 9.79467 97.3055 9.272 97.3055 8.696C97.3055 8.09867 97.4282 7.57067 97.6735 7.112C97.9188 6.65333 98.2495 6.29067 98.6655 6.024C99.0922 5.75733 99.5668 5.624 100.09 5.624C100.634 5.624 101.114 5.768 101.53 6.056C101.946 6.33333 102.255 6.696 102.458 7.144L103.786 6.504C103.604 6.056 103.327 5.656 102.954 5.304C102.591 4.952 102.164 4.68 101.674 4.488C101.183 4.28533 100.655 4.184 100.09 4.184C99.2468 4.184 98.4948 4.38133 97.8335 4.776C97.1828 5.16 96.6708 5.69333 96.2975 6.376C95.9242 7.048 95.7375 7.816 95.7375 8.68C95.7375 9.53333 95.9242 10.3013 96.2975 10.984C96.6708 11.6667 97.1828 12.2053 97.8335 12.6C98.4948 12.9947 99.2468 13.192 100.09 13.192ZM109.826 13.192C110.637 13.192 111.378 13 112.05 12.616C112.722 12.232 113.255 11.6987 113.65 11.016C114.055 10.3333 114.258 9.55467 114.258 8.68C114.258 7.816 114.061 7.048 113.666 6.376C113.282 5.69333 112.754 5.16 112.082 4.776C111.41 4.38133 110.658 4.184 109.826 4.184C108.983 4.184 108.226 4.38133 107.554 4.776C106.882 5.16 106.349 5.69333 105.954 6.376C105.57 7.048 105.378 7.816 105.378 8.68C105.378 9.544 105.575 10.3173 105.97 11C106.365 11.6827 106.898 12.2213 107.57 12.616C108.242 13 108.994 13.192 109.826 13.192ZM109.826 11.752C109.282 11.752 108.791 11.6187 108.354 11.352C107.927 11.0853 107.586 10.7227 107.33 10.264C107.074 9.79467 106.946 9.26667 106.946 8.68C106.946 8.09333 107.074 7.57067 107.33 7.112C107.586 6.65333 107.927 6.29067 108.354 6.024C108.791 5.75733 109.282 5.624 109.826 5.624C110.359 5.624 110.839 5.75733 111.266 6.024C111.703 6.29067 112.045 6.65333 112.29 7.112C112.546 7.57067 112.674 8.09333 112.674 8.68C112.674 9.26667 112.546 9.79467 112.29 10.264C112.045 10.7227 111.703 11.0853 111.266 11.352C110.839 11.6187 110.359 11.752 109.826 11.752ZM119.255 13.192C119.788 13.192 120.268 13.0853 120.695 12.872C121.122 12.648 121.463 12.3387 121.719 11.944V13H123.175V4.376H121.671V9.48C121.671 10.184 121.474 10.7387 121.079 11.144C120.695 11.5493 120.199 11.752 119.591 11.752C118.972 11.752 118.471 11.56 118.087 11.176C117.703 10.7813 117.511 10.2587 117.511 9.608V4.376H116.023V9.768C116.023 10.44 116.162 11.0373 116.439 11.56C116.716 12.072 117.095 12.472 117.575 12.76C118.066 13.048 118.626 13.192 119.255 13.192ZM125.48 13H126.968V7.864C126.968 7.17067 127.155 6.63733 127.528 6.264C127.901 5.88 128.392 5.688 129 5.688H129.752V4.28H129.224C128.691 4.28 128.232 4.376 127.848 4.568C127.464 4.74933 127.16 5.02667 126.936 5.4V4.376H125.48V13ZM134.162 13.192C134.781 13.192 135.325 13.0853 135.794 12.872C136.263 12.6587 136.631 12.3653 136.898 11.992C137.165 11.608 137.298 11.1707 137.298 10.68C137.298 10.0827 137.101 9.57067 136.706 9.144C136.311 8.71733 135.767 8.40267 135.074 8.2L133.666 7.784C133.495 7.73067 133.319 7.66667 133.138 7.592C132.957 7.50667 132.802 7.38933 132.674 7.24C132.546 7.08 132.482 6.87733 132.482 6.632C132.482 6.29067 132.61 6.01333 132.866 5.8C133.133 5.58667 133.479 5.48 133.906 5.48C134.375 5.48 134.802 5.61333 135.186 5.88C135.581 6.136 135.874 6.488 136.066 6.936L137.282 6.376C137.026 5.68267 136.594 5.144 135.986 4.76C135.389 4.376 134.711 4.184 133.954 4.184C133.389 4.184 132.877 4.29067 132.418 4.504C131.97 4.71733 131.613 5.016 131.346 5.4C131.09 5.77333 130.962 6.216 130.962 6.728C130.962 7.28267 131.138 7.77333 131.49 8.2C131.853 8.616 132.423 8.93067 133.202 9.144L134.498 9.512C134.679 9.55467 134.866 9.624 135.058 9.72C135.261 9.80533 135.431 9.928 135.57 10.088C135.719 10.2373 135.794 10.44 135.794 10.696C135.794 11.0587 135.639 11.352 135.33 11.576C135.021 11.8 134.631 11.912 134.162 11.912C133.639 11.912 133.165 11.768 132.738 11.48C132.311 11.1813 131.975 10.7707 131.73 10.248L130.546 10.824C130.813 11.5493 131.266 12.1253 131.906 12.552C132.546 12.9787 133.298 13.192 134.162 13.192ZM143.214 13.192C144.099 13.192 144.867 12.984 145.518 12.568C146.168 12.152 146.627 11.6453 146.894 11.048L145.646 10.408C145.4 10.824 145.08 11.1653 144.686 11.432C144.291 11.6987 143.806 11.832 143.23 11.832C142.75 11.832 142.302 11.7253 141.886 11.512C141.48 11.288 141.144 10.9733 140.878 10.568C140.622 10.1627 140.483 9.68267 140.462 9.128H147.054C147.107 8.84 147.134 8.57333 147.134 8.328C147.134 7.61333 146.974 6.94133 146.654 6.312C146.334 5.68267 145.87 5.17067 145.262 4.776C144.664 4.38133 143.939 4.184 143.086 4.184C142.286 4.184 141.571 4.376 140.942 4.76C140.312 5.144 139.811 5.67733 139.438 6.36C139.075 7.032 138.894 7.8 138.894 8.664C138.894 9.528 139.08 10.3013 139.454 10.984C139.827 11.6667 140.339 12.2053 140.99 12.6C141.64 12.9947 142.382 13.192 143.214 13.192ZM143.086 5.512C143.523 5.512 143.923 5.61333 144.286 5.816C144.648 6.008 144.942 6.28 145.166 6.632C145.39 6.984 145.507 7.38933 145.518 7.848H140.494C140.6 7.12267 140.899 6.552 141.39 6.136C141.88 5.72 142.446 5.512 143.086 5.512ZM152.162 13.192C152.781 13.192 153.325 13.0853 153.794 12.872C154.263 12.6587 154.631 12.3653 154.898 11.992C155.165 11.608 155.298 11.1707 155.298 10.68C155.298 10.0827 155.101 9.57067 154.706 9.144C154.311 8.71733 153.767 8.40267 153.074 8.2L151.666 7.784C151.495 7.73067 151.319 7.66667 151.138 7.592C150.957 7.50667 150.802 7.38933 150.674 7.24C150.546 7.08 150.482 6.87733 150.482 6.632C150.482 6.29067 150.61 6.01333 150.866 5.8C151.133 5.58667 151.479 5.48 151.906 5.48C152.375 5.48 152.802 5.61333 153.186 5.88C153.581 6.136 153.874 6.488 154.066 6.936L155.282 6.376C155.026 5.68267 154.594 5.144 153.986 4.76C153.389 4.376 152.711 4.184 151.954 4.184C151.389 4.184 150.877 4.29067 150.418 4.504C149.97 4.71733 149.613 5.016 149.346 5.4C149.09 5.77333 148.962 6.216 148.962 6.728C148.962 7.28267 149.138 7.77333 149.49 8.2C149.853 8.616 150.423 8.93067 151.202 9.144L152.498 9.512C152.679 9.55467 152.866 9.624 153.058 9.72C153.261 9.80533 153.431 9.928 153.57 10.088C153.719 10.2373 153.794 10.44 153.794 10.696C153.794 11.0587 153.639 11.352 153.33 11.576C153.021 11.8 152.631 11.912 152.162 11.912C151.639 11.912 151.165 11.768 150.738 11.48C150.311 11.1813 149.975 10.7707 149.73 10.248L148.546 10.824C148.813 11.5493 149.266 12.1253 149.906 12.552C150.546 12.9787 151.298 13.192 152.162 13.192ZM162.539 13.192C163.169 13.192 163.734 13.0747 164.235 12.84C164.737 12.5947 165.142 12.2747 165.451 11.88V13H166.907V7.144C166.907 6.55733 166.763 6.04533 166.475 5.608C166.198 5.16 165.809 4.81333 165.307 4.568C164.806 4.312 164.225 4.184 163.563 4.184C163.051 4.184 162.561 4.27467 162.091 4.456C161.622 4.63733 161.211 4.888 160.859 5.208C160.507 5.51733 160.251 5.86933 160.091 6.264L161.387 6.936C161.569 6.53067 161.846 6.2 162.219 5.944C162.593 5.688 163.03 5.56 163.531 5.56C164.097 5.56 164.55 5.70933 164.891 6.008C165.243 6.296 165.419 6.67467 165.419 7.144V7.544L162.475 8.024C161.505 8.184 160.79 8.50933 160.331 9C159.883 9.48 159.659 10.0613 159.659 10.744C159.659 11.4693 159.926 12.0613 160.459 12.52C161.003 12.968 161.697 13.192 162.539 13.192ZM161.227 10.696C161.227 10.3227 161.35 10.008 161.595 9.752C161.851 9.496 162.257 9.32 162.811 9.224L165.419 8.792V9.336C165.419 9.816 165.307 10.2533 165.083 10.648C164.859 11.0427 164.545 11.3573 164.139 11.592C163.734 11.816 163.259 11.928 162.715 11.928C162.289 11.928 161.931 11.8107 161.643 11.576C161.366 11.3413 161.227 11.048 161.227 10.696ZM173.215 13.192C173.78 13.192 174.308 13.0907 174.799 12.888C175.3 12.6853 175.732 12.408 176.095 12.056C176.457 11.704 176.729 11.3093 176.911 10.872L175.583 10.2C175.38 10.6693 175.071 11.048 174.655 11.336C174.249 11.6133 173.769 11.752 173.215 11.752C172.692 11.752 172.217 11.6187 171.791 11.352C171.375 11.0853 171.044 10.7227 170.799 10.264C170.553 9.79467 170.431 9.272 170.431 8.696C170.431 8.09867 170.553 7.57067 170.799 7.112C171.044 6.65333 171.375 6.29067 171.791 6.024C172.217 5.75733 172.692 5.624 173.215 5.624C173.759 5.624 174.239 5.768 174.655 6.056C175.071 6.33333 175.38 6.696 175.583 7.144L176.911 6.504C176.729 6.056 176.452 5.656 176.079 5.304C175.716 4.952 175.289 4.68 174.799 4.488C174.308 4.28533 173.78 4.184 173.215 4.184C172.372 4.184 171.62 4.38133 170.959 4.776C170.308 5.16 169.796 5.69333 169.423 6.376C169.049 7.048 168.863 7.816 168.863 8.68C168.863 9.53333 169.049 10.3013 169.423 10.984C169.796 11.6667 170.308 12.2053 170.959 12.6C171.62 12.9947 172.372 13.192 173.215 13.192ZM178.855 13H180.343V7.864C180.343 7.17067 180.53 6.63733 180.903 6.264C181.276 5.88 181.767 5.688 182.375 5.688H183.127V4.28H182.599C182.066 4.28 181.607 4.376 181.223 4.568C180.839 4.74933 180.535 5.02667 180.311 5.4V4.376H178.855V13ZM188.545 13.192C189.356 13.192 190.097 13 190.769 12.616C191.441 12.232 191.974 11.6987 192.369 11.016C192.774 10.3333 192.977 9.55467 192.977 8.68C192.977 7.816 192.78 7.048 192.385 6.376C192.001 5.69333 191.473 5.16 190.801 4.776C190.129 4.38133 189.377 4.184 188.545 4.184C187.702 4.184 186.945 4.38133 186.273 4.776C185.601 5.16 185.068 5.69333 184.673 6.376C184.289 7.048 184.097 7.816 184.097 8.68C184.097 9.544 184.294 10.3173 184.689 11C185.084 11.6827 185.617 12.2213 186.289 12.616C186.961 13 187.713 13.192 188.545 13.192ZM188.545 11.752C188.001 11.752 187.51 11.6187 187.073 11.352C186.646 11.0853 186.305 10.7227 186.049 10.264C185.793 9.79467 185.665 9.26667 185.665 8.68C185.665 8.09333 185.793 7.57067 186.049 7.112C186.305 6.65333 186.646 6.29067 187.073 6.024C187.51 5.75733 188.001 5.624 188.545 5.624C189.078 5.624 189.558 5.75733 189.985 6.024C190.422 6.29067 190.764 6.65333 191.009 7.112C191.265 7.57067 191.393 8.09333 191.393 8.68C191.393 9.26667 191.265 9.79467 191.009 10.264C190.764 10.7227 190.422 11.0853 189.985 11.352C189.558 11.6187 189.078 11.752 188.545 11.752ZM198.006 13.192C198.624 13.192 199.168 13.0853 199.638 12.872C200.107 12.6587 200.475 12.3653 200.742 11.992C201.008 11.608 201.142 11.1707 201.142 10.68C201.142 10.0827 200.944 9.57067 200.55 9.144C200.155 8.71733 199.611 8.40267 198.918 8.2L197.51 7.784C197.339 7.73067 197.163 7.66667 196.982 7.592C196.8 7.50667 196.646 7.38933 196.518 7.24C196.39 7.08 196.326 6.87733 196.326 6.632C196.326 6.29067 196.454 6.01333 196.71 5.8C196.976 5.58667 197.323 5.48 197.75 5.48C198.219 5.48 198.646 5.61333 199.03 5.88C199.424 6.136 199.718 6.488 199.91 6.936L201.126 6.376C200.87 5.68267 200.438 5.144 199.83 4.76C199.232 4.376 198.555 4.184 197.798 4.184C197.232 4.184 196.72 4.29067 196.262 4.504C195.814 4.71733 195.456 5.016 195.19 5.4C194.934 5.77333 194.806 6.216 194.806 6.728C194.806 7.28267 194.982 7.77333 195.334 8.2C195.696 8.616 196.267 8.93067 197.046 9.144L198.342 9.512C198.523 9.55467 198.71 9.624 198.902 9.72C199.104 9.80533 199.275 9.928 199.414 10.088C199.563 10.2373 199.638 10.44 199.638 10.696C199.638 11.0587 199.483 11.352 199.174 11.576C198.864 11.8 198.475 11.912 198.006 11.912C197.483 11.912 197.008 11.768 196.582 11.48C196.155 11.1813 195.819 10.7707 195.574 10.248L194.39 10.824C194.656 11.5493 195.11 12.1253 195.75 12.552C196.39 12.9787 197.142 13.192 198.006 13.192ZM206.178 13.192C206.796 13.192 207.34 13.0853 207.81 12.872C208.279 12.6587 208.647 12.3653 208.914 11.992C209.18 11.608 209.314 11.1707 209.314 10.68C209.314 10.0827 209.116 9.57067 208.722 9.144C208.327 8.71733 207.783 8.40267 207.09 8.2L205.682 7.784C205.511 7.73067 205.335 7.66667 205.154 7.592C204.972 7.50667 204.818 7.38933 204.69 7.24C204.562 7.08 204.498 6.87733 204.498 6.632C204.498 6.29067 204.626 6.01333 204.882 5.8C205.148 5.58667 205.495 5.48 205.922 5.48C206.391 5.48 206.818 5.61333 207.202 5.88C207.596 6.136 207.89 6.488 208.082 6.936L209.298 6.376C209.042 5.68267 208.61 5.144 208.002 4.76C207.404 4.376 206.727 4.184 205.97 4.184C205.404 4.184 204.892 4.29067 204.434 4.504C203.986 4.71733 203.628 5.016 203.362 5.4C203.106 5.77333 202.978 6.216 202.978 6.728C202.978 7.28267 203.154 7.77333 203.506 8.2C203.868 8.616 204.439 8.93067 205.218 9.144L206.514 9.512C206.695 9.55467 206.882 9.624 207.074 9.72C207.276 9.80533 207.447 9.928 207.586 10.088C207.735 10.2373 207.81 10.44 207.81 10.696C207.81 11.0587 207.655 11.352 207.346 11.576C207.036 11.8 206.647 11.912 206.178 11.912C205.655 11.912 205.18 11.768 204.754 11.48C204.327 11.1813 203.991 10.7707 203.746 10.248L202.562 10.824C202.828 11.5493 203.282 12.1253 203.922 12.552C204.562 12.9787 205.314 13.192 206.178 13.192ZM216.555 13.192C217.184 13.192 217.75 13.0747 218.251 12.84C218.752 12.5947 219.158 12.2747 219.467 11.88V13H220.923V7.144C220.923 6.55733 220.779 6.04533 220.491 5.608C220.214 5.16 219.824 4.81333 219.323 4.568C218.822 4.312 218.24 4.184 217.579 4.184C217.067 4.184 216.576 4.27467 216.107 4.456C215.638 4.63733 215.227 4.888 214.875 5.208C214.523 5.51733 214.267 5.86933 214.107 6.264L215.403 6.936C215.584 6.53067 215.862 6.2 216.235 5.944C216.608 5.688 217.046 5.56 217.547 5.56C218.112 5.56 218.566 5.70933 218.907 6.008C219.259 6.296 219.435 6.67467 219.435 7.144V7.544L216.491 8.024C215.52 8.184 214.806 8.50933 214.347 9C213.899 9.48 213.675 10.0613 213.675 10.744C213.675 11.4693 213.942 12.0613 214.475 12.52C215.019 12.968 215.712 13.192 216.555 13.192ZM215.243 10.696C215.243 10.3227 215.366 10.008 215.611 9.752C215.867 9.496 216.272 9.32 216.827 9.224L219.435 8.792V9.336C219.435 9.816 219.323 10.2533 219.099 10.648C218.875 11.0427 218.56 11.3573 218.155 11.592C217.75 11.816 217.275 11.928 216.731 11.928C216.304 11.928 215.947 11.8107 215.659 11.576C215.382 11.3413 215.243 11.048 215.243 10.696ZM225.996 13H227.484V7.864C227.484 7.17067 227.67 6.63733 228.044 6.264C228.417 5.88 228.908 5.688 229.516 5.688H230.268V4.28H229.74C229.206 4.28 228.748 4.376 228.364 4.568C227.98 4.74933 227.676 5.02667 227.452 5.4V4.376H225.996V13ZM234.118 13.192C234.747 13.192 235.312 13.0747 235.814 12.84C236.315 12.5947 236.72 12.2747 237.03 11.88V13H238.486V7.144C238.486 6.55733 238.342 6.04533 238.054 5.608C237.776 5.16 237.387 4.81333 236.886 4.568C236.384 4.312 235.803 4.184 235.141 4.184C234.63 4.184 234.139 4.27467 233.67 4.456C233.2 4.63733 232.79 4.888 232.438 5.208C232.086 5.51733 231.83 5.86933 231.67 6.264L232.966 6.936C233.147 6.53067 233.424 6.2 233.798 5.944C234.171 5.688 234.608 5.56 235.11 5.56C235.675 5.56 236.128 5.70933 236.47 6.008C236.822 6.296 236.998 6.67467 236.998 7.144V7.544L234.054 8.024C233.083 8.184 232.368 8.50933 231.91 9C231.462 9.48 231.238 10.0613 231.238 10.744C231.238 11.4693 231.504 12.0613 232.038 12.52C232.582 12.968 233.275 13.192 234.118 13.192ZM232.806 10.696C232.806 10.3227 232.928 10.008 233.174 9.752C233.43 9.496 233.835 9.32 234.39 9.224L236.998 8.792V9.336C236.998 9.816 236.886 10.2533 236.662 10.648C236.438 11.0427 236.123 11.3573 235.718 11.592C235.312 11.816 234.838 11.928 234.294 11.928C233.867 11.928 233.51 11.8107 233.222 11.576C232.944 11.3413 232.806 11.048 232.806 10.696ZM240.793 13H242.281V7.896C242.281 7.192 242.478 6.63733 242.873 6.232C243.267 5.82667 243.769 5.624 244.377 5.624C244.985 5.624 245.481 5.82667 245.865 6.232C246.249 6.62667 246.441 7.18133 246.441 7.896V13H247.945V7.416C247.945 6.79733 247.801 6.248 247.513 5.768C247.235 5.27733 246.851 4.89333 246.361 4.616C245.881 4.328 245.331 4.184 244.713 4.184C244.179 4.184 243.699 4.296 243.273 4.52C242.846 4.73333 242.505 5.03733 242.249 5.432V4.376H240.793V13ZM254.186 16.52C254.986 16.52 255.695 16.3493 256.314 16.008C256.943 15.6773 257.434 15.2187 257.786 14.632C258.138 14.0453 258.314 13.3787 258.314 12.632V4.376H256.858V5.576C256.517 5.13867 256.095 4.79733 255.594 4.552C255.093 4.30667 254.538 4.184 253.93 4.184C253.119 4.184 252.394 4.376 251.754 4.76C251.125 5.13333 250.629 5.64533 250.266 6.296C249.903 6.94667 249.722 7.67733 249.722 8.488C249.722 9.29867 249.903 10.0293 250.266 10.68C250.639 11.3307 251.141 11.848 251.77 12.232C252.41 12.6053 253.135 12.792 253.946 12.792C254.533 12.792 255.077 12.6747 255.578 12.44C256.079 12.2053 256.49 11.8693 256.81 11.432V12.632C256.81 13.1547 256.687 13.5973 256.442 13.96C256.207 14.3333 255.893 14.6107 255.498 14.792C255.103 14.984 254.661 15.08 254.17 15.08C253.53 15.08 252.997 14.936 252.57 14.648C252.154 14.3707 251.871 14.0293 251.722 13.624L250.33 14.264C250.618 14.936 251.103 15.48 251.786 15.896C252.469 16.312 253.269 16.52 254.186 16.52ZM254.074 11.352C253.541 11.352 253.061 11.224 252.634 10.968C252.218 10.712 251.887 10.3707 251.642 9.944C251.407 9.50667 251.29 9.02133 251.29 8.488C251.29 7.95467 251.413 7.47467 251.658 7.048C251.903 6.61067 252.234 6.264 252.65 6.008C253.077 5.752 253.551 5.624 254.074 5.624C254.586 5.624 255.05 5.752 255.466 6.008C255.882 6.264 256.207 6.61067 256.442 7.048C256.687 7.47467 256.81 7.95467 256.81 8.488C256.81 9.01067 256.687 9.49067 256.442 9.928C256.207 10.3653 255.882 10.712 255.466 10.968C255.05 11.224 254.586 11.352 254.074 11.352ZM264.589 13.192C265.474 13.192 266.242 12.984 266.893 12.568C267.543 12.152 268.002 11.6453 268.269 11.048L267.021 10.408C266.775 10.824 266.455 11.1653 266.061 11.432C265.666 11.6987 265.181 11.832 264.605 11.832C264.125 11.832 263.677 11.7253 263.261 11.512C262.855 11.288 262.519 10.9733 262.253 10.568C261.997 10.1627 261.858 9.68267 261.837 9.128H268.429C268.482 8.84 268.509 8.57333 268.509 8.328C268.509 7.61333 268.349 6.94133 268.029 6.312C267.709 5.68267 267.245 5.17067 266.637 4.776C266.039 4.38133 265.314 4.184 264.461 4.184C263.661 4.184 262.946 4.376 262.317 4.76C261.687 5.144 261.186 5.67733 260.813 6.36C260.45 7.032 260.269 7.8 260.269 8.664C260.269 9.528 260.455 10.3013 260.829 10.984C261.202 11.6667 261.714 12.2053 262.365 12.6C263.015 12.9947 263.757 13.192 264.589 13.192ZM264.461 5.512C264.898 5.512 265.298 5.61333 265.661 5.816C266.023 6.008 266.317 6.28 266.541 6.632C266.765 6.984 266.882 7.38933 266.893 7.848H261.869C261.975 7.12267 262.274 6.552 262.765 6.136C263.255 5.72 263.821 5.512 264.461 5.512ZM277.311 13.192C278.121 13.192 278.863 13 279.535 12.616C280.207 12.232 280.74 11.6987 281.135 11.016C281.54 10.3333 281.743 9.55467 281.743 8.68C281.743 7.816 281.545 7.048 281.151 6.376C280.767 5.69333 280.239 5.16 279.567 4.776C278.895 4.38133 278.143 4.184 277.311 4.184C276.468 4.184 275.711 4.38133 275.039 4.776C274.367 5.16 273.833 5.69333 273.439 6.376C273.055 7.048 272.863 7.816 272.863 8.68C272.863 9.544 273.06 10.3173 273.455 11C273.849 11.6827 274.383 12.2213 275.055 12.616C275.727 13 276.479 13.192 277.311 13.192ZM277.311 11.752C276.767 11.752 276.276 11.6187 275.839 11.352C275.412 11.0853 275.071 10.7227 274.815 10.264C274.559 9.79467 274.431 9.26667 274.431 8.68C274.431 8.09333 274.559 7.57067 274.815 7.112C275.071 6.65333 275.412 6.29067 275.839 6.024C276.276 5.75733 276.767 5.624 277.311 5.624C277.844 5.624 278.324 5.75733 278.751 6.024C279.188 6.29067 279.529 6.65333 279.775 7.112C280.031 7.57067 280.159 8.09333 280.159 8.68C280.159 9.26667 280.031 9.79467 279.775 10.264C279.529 10.7227 279.188 11.0853 278.751 11.352C278.324 11.6187 277.844 11.752 277.311 11.752ZM284.314 13H285.818V5.8H287.866V4.376H285.818V3.768C285.818 3.21333 285.973 2.824 286.282 2.6C286.602 2.36533 287.007 2.248 287.498 2.248C287.562 2.248 287.653 2.25333 287.77 2.264C287.898 2.264 287.999 2.27467 288.074 2.296V0.967999C287.978 0.946666 287.855 0.930666 287.706 0.919999C287.567 0.898666 287.439 0.888 287.322 0.888C286.767 0.888 286.261 0.999999 285.802 1.224C285.354 1.448 284.991 1.77333 284.714 2.2C284.447 2.62667 284.314 3.14933 284.314 3.768V4.376H282.666V5.8H284.314V13ZM1.152 29H2.64V27.08H1.152V29ZM1.152 39H2.64V30.376H1.152V39ZM4.94888 39H6.43688V33.896C6.43688 33.192 6.63421 32.6373 7.02888 32.232C7.42354 31.8267 7.92488 31.624 8.53288 31.624C9.14088 31.624 9.63688 31.8267 10.0209 32.232C10.4049 32.6267 10.5969 33.1813 10.5969 33.896V39H12.1009V33.416C12.1009 32.7973 11.9569 32.248 11.6689 31.768C11.3915 31.2773 11.0075 30.8933 10.5169 30.616C10.0369 30.328 9.48754 30.184 8.86888 30.184C8.33554 30.184 7.85554 30.296 7.42888 30.52C7.00221 30.7333 6.66088 31.0373 6.40488 31.432V30.376H4.94888V39ZM14.3421 35.368H20.3421V34.008H14.3421V35.368ZM26.6658 39.192C27.3058 39.192 27.8871 39.0693 28.4098 38.824C28.9431 38.568 29.3698 38.2053 29.6898 37.736V39H31.1458V26.888H29.6418V31.528C29.3111 31.1013 28.8898 30.7707 28.3778 30.536C27.8658 30.3013 27.2951 30.184 26.6658 30.184C25.8551 30.184 25.1244 30.3813 24.4738 30.776C23.8338 31.1707 23.3271 31.7093 22.9538 32.392C22.5804 33.064 22.3938 33.832 22.3938 34.696C22.3938 35.5493 22.5804 36.3173 22.9538 37C23.3271 37.672 23.8338 38.2053 24.4738 38.6C25.1244 38.9947 25.8551 39.192 26.6658 39.192ZM26.7938 37.752C26.2498 37.752 25.7644 37.6187 25.3378 37.352C24.9111 37.0853 24.5751 36.7227 24.3298 36.264C24.0844 35.7947 23.9618 35.272 23.9618 34.696C23.9618 34.1093 24.0844 33.5867 24.3298 33.128C24.5751 32.6587 24.9111 32.2907 25.3378 32.024C25.7751 31.7573 26.2604 31.624 26.7938 31.624C27.3378 31.624 27.8231 31.7627 28.2498 32.04C28.6764 32.3067 29.0124 32.6693 29.2578 33.128C29.5138 33.5867 29.6418 34.1093 29.6418 34.696C29.6418 35.272 29.5138 35.7947 29.2578 36.264C29.0124 36.7227 28.6764 37.0853 28.2498 37.352C27.8231 37.6187 27.3378 37.752 26.7938 37.752ZM37.4169 39.192C38.3022 39.192 39.0702 38.984 39.7209 38.568C40.3715 38.152 40.8302 37.6453 41.0969 37.048L39.8489 36.408C39.6035 36.824 39.2835 37.1653 38.8889 37.432C38.4942 37.6987 38.0089 37.832 37.4329 37.832C36.9529 37.832 36.5049 37.7253 36.0889 37.512C35.6835 37.288 35.3475 36.9733 35.0809 36.568C34.8249 36.1627 34.6862 35.6827 34.6649 35.128H41.2569C41.3102 34.84 41.3369 34.5733 41.3369 34.328C41.3369 33.6133 41.1769 32.9413 40.8569 32.312C40.5369 31.6827 40.0729 31.1707 39.4649 30.776C38.8675 30.3813 38.1422 30.184 37.2889 30.184C36.4889 30.184 35.7742 30.376 35.1449 30.76C34.5155 31.144 34.0142 31.6773 33.6409 32.36C33.2782 33.032 33.0969 33.8 33.0969 34.664C33.0969 35.528 33.2835 36.3013 33.6569 36.984C34.0302 37.6667 34.5422 38.2053 35.1929 38.6C35.8435 38.9947 36.5849 39.192 37.4169 39.192ZM37.2889 31.512C37.7262 31.512 38.1262 31.6133 38.4889 31.816C38.8515 32.008 39.1449 32.28 39.3689 32.632C39.5929 32.984 39.7102 33.3893 39.7209 33.848H34.6969C34.8035 33.1227 35.1022 32.552 35.5929 32.136C36.0835 31.72 36.6489 31.512 37.2889 31.512ZM43.277 39H44.765V33.896C44.765 33.192 44.957 32.6373 45.341 32.232C45.725 31.8267 46.205 31.624 46.781 31.624C47.3677 31.624 47.8423 31.8267 48.205 32.232C48.5783 32.6267 48.765 33.1813 48.765 33.896V39H50.269V33.896C50.269 33.192 50.4557 32.6373 50.829 32.232C51.213 31.8267 51.6983 31.624 52.285 31.624C52.861 31.624 53.3357 31.8267 53.709 32.232C54.0823 32.6267 54.269 33.1813 54.269 33.896V39H55.773V33.416C55.773 32.7973 55.629 32.248 55.341 31.768C55.053 31.2773 54.6637 30.8933 54.173 30.616C53.693 30.328 53.1543 30.184 52.557 30.184C51.981 30.184 51.453 30.3173 50.973 30.584C50.5037 30.8507 50.1303 31.24 49.853 31.752C49.597 31.272 49.2237 30.8933 48.733 30.616C48.253 30.328 47.7197 30.184 47.133 30.184C46.621 30.184 46.1517 30.296 45.725 30.52C45.309 30.7333 44.9783 31.0427 44.733 31.448V30.376H43.277V39ZM60.4144 39.192C61.0437 39.192 61.609 39.0747 62.1104 38.84C62.6117 38.5947 63.017 38.2747 63.3264 37.88V39H64.7824V33.144C64.7824 32.5573 64.6384 32.0453 64.3504 31.608C64.073 31.16 63.6837 30.8133 63.1824 30.568C62.681 30.312 62.0997 30.184 61.4384 30.184C60.9264 30.184 60.4357 30.2747 59.9664 30.456C59.497 30.6373 59.0864 30.888 58.7344 31.208C58.3824 31.5173 58.1264 31.8693 57.9664 32.264L59.2624 32.936C59.4437 32.5307 59.721 32.2 60.0944 31.944C60.4677 31.688 60.905 31.56 61.4064 31.56C61.9717 31.56 62.425 31.7093 62.7664 32.008C63.1184 32.296 63.2944 32.6747 63.2944 33.144V33.544L60.3504 34.024C59.3797 34.184 58.665 34.5093 58.2064 35C57.7584 35.48 57.5344 36.0613 57.5344 36.744C57.5344 37.4693 57.801 38.0613 58.3344 38.52C58.8784 38.968 59.5717 39.192 60.4144 39.192ZM59.1024 36.696C59.1024 36.3227 59.225 36.008 59.4704 35.752C59.7264 35.496 60.1317 35.32 60.6864 35.224L63.2944 34.792V35.336C63.2944 35.816 63.1824 36.2533 62.9584 36.648C62.7344 37.0427 62.4197 37.3573 62.0144 37.592C61.609 37.816 61.1344 37.928 60.5904 37.928C60.1637 37.928 59.8064 37.8107 59.5184 37.576C59.241 37.3413 59.1024 37.048 59.1024 36.696ZM67.0895 39H68.5775V33.896C68.5775 33.192 68.7748 32.6373 69.1695 32.232C69.5642 31.8267 70.0655 31.624 70.6735 31.624C71.2815 31.624 71.7775 31.8267 72.1615 32.232C72.5455 32.6267 72.7375 33.1813 72.7375 33.896V39H74.2415V33.416C74.2415 32.7973 74.0975 32.248 73.8095 31.768C73.5322 31.2773 73.1482 30.8933 72.6575 30.616C72.1775 30.328 71.6282 30.184 71.0095 30.184C70.4762 30.184 69.9962 30.296 69.5695 30.52C69.1428 30.7333 68.8015 31.0373 68.5455 31.432V30.376H67.0895V39ZM80.2908 39.192C80.9308 39.192 81.5121 39.0693 82.0348 38.824C82.5681 38.568 82.9948 38.2053 83.3148 37.736V39H84.7708V26.888H83.2668V31.528C82.9361 31.1013 82.5148 30.7707 82.0028 30.536C81.4908 30.3013 80.9201 30.184 80.2908 30.184C79.4801 30.184 78.7494 30.3813 78.0988 30.776C77.4588 31.1707 76.9521 31.7093 76.5788 32.392C76.2054 33.064 76.0188 33.832 76.0188 34.696C76.0188 35.5493 76.2054 36.3173 76.5788 37C76.9521 37.672 77.4588 38.2053 78.0988 38.6C78.7494 38.9947 79.4801 39.192 80.2908 39.192ZM80.4188 37.752C79.8748 37.752 79.3894 37.6187 78.9628 37.352C78.5361 37.0853 78.2001 36.7227 77.9548 36.264C77.7094 35.7947 77.5868 35.272 77.5868 34.696C77.5868 34.1093 77.7094 33.5867 77.9548 33.128C78.2001 32.6587 78.5361 32.2907 78.9628 32.024C79.4001 31.7573 79.8854 31.624 80.4188 31.624C80.9628 31.624 81.4481 31.7627 81.8748 32.04C82.3014 32.3067 82.6374 32.6693 82.8828 33.128C83.1388 33.5867 83.2668 34.1093 83.2668 34.696C83.2668 35.272 83.1388 35.7947 82.8828 36.264C82.6374 36.7227 82.3014 37.0853 81.8748 37.352C81.4481 37.6187 80.9628 37.752 80.4188 37.752ZM92.9275 39.192C93.5462 39.192 94.0902 39.0853 94.5595 38.872C95.0288 38.6587 95.3968 38.3653 95.6635 37.992C95.9302 37.608 96.0635 37.1707 96.0635 36.68C96.0635 36.0827 95.8662 35.5707 95.4715 35.144C95.0768 34.7173 94.5328 34.4027 93.8395 34.2L92.4315 33.784C92.2608 33.7307 92.0848 33.6667 91.9035 33.592C91.7222 33.5067 91.5675 33.3893 91.4395 33.24C91.3115 33.08 91.2475 32.8773 91.2475 32.632C91.2475 32.2907 91.3755 32.0133 91.6315 31.8C91.8982 31.5867 92.2448 31.48 92.6715 31.48C93.1408 31.48 93.5675 31.6133 93.9515 31.88C94.3462 32.136 94.6395 32.488 94.8315 32.936L96.0475 32.376C95.7915 31.6827 95.3595 31.144 94.7515 30.76C94.1542 30.376 93.4768 30.184 92.7195 30.184C92.1542 30.184 91.6422 30.2907 91.1835 30.504C90.7355 30.7173 90.3782 31.016 90.1115 31.4C89.8555 31.7733 89.7275 32.216 89.7275 32.728C89.7275 33.2827 89.9035 33.7733 90.2555 34.2C90.6182 34.616 91.1888 34.9307 91.9675 35.144L93.2635 35.512C93.4448 35.5547 93.6315 35.624 93.8235 35.72C94.0262 35.8053 94.1968 35.928 94.3355 36.088C94.4848 36.2373 94.5595 36.44 94.5595 36.696C94.5595 37.0587 94.4048 37.352 94.0955 37.576C93.7862 37.8 93.3968 37.912 92.9275 37.912C92.4048 37.912 91.9302 37.768 91.5035 37.48C91.0768 37.1813 90.7408 36.7707 90.4955 36.248L89.3115 36.824C89.5782 37.5493 90.0315 38.1253 90.6715 38.552C91.3115 38.9787 92.0635 39.192 92.9275 39.192ZM98.0114 39H99.4994V36.408L100.971 34.856L103.835 39H105.595L102.059 33.848L105.371 30.376H103.467L99.4994 34.424V26.888H98.0114V39ZM106.933 29H108.421V27.08H106.933V29ZM106.933 39H108.421V30.376H106.933V39ZM110.73 39H112.218V26.888H110.73V39ZM114.527 39H116.015V26.888H114.527V39ZM121.412 39.192C122.031 39.192 122.575 39.0853 123.044 38.872C123.513 38.6587 123.881 38.3653 124.148 37.992C124.415 37.608 124.548 37.1707 124.548 36.68C124.548 36.0827 124.351 35.5707 123.956 35.144C123.561 34.7173 123.017 34.4027 122.324 34.2L120.916 33.784C120.745 33.7307 120.569 33.6667 120.388 33.592C120.207 33.5067 120.052 33.3893 119.924 33.24C119.796 33.08 119.732 32.8773 119.732 32.632C119.732 32.2907 119.86 32.0133 120.116 31.8C120.383 31.5867 120.729 31.48 121.156 31.48C121.625 31.48 122.052 31.6133 122.436 31.88C122.831 32.136 123.124 32.488 123.316 32.936L124.532 32.376C124.276 31.6827 123.844 31.144 123.236 30.76C122.639 30.376 121.961 30.184 121.204 30.184C120.639 30.184 120.127 30.2907 119.668 30.504C119.22 30.7173 118.863 31.016 118.596 31.4C118.34 31.7733 118.212 32.216 118.212 32.728C118.212 33.2827 118.388 33.7733 118.74 34.2C119.103 34.616 119.673 34.9307 120.452 35.144L121.748 35.512C121.929 35.5547 122.116 35.624 122.308 35.72C122.511 35.8053 122.681 35.928 122.82 36.088C122.969 36.2373 123.044 36.44 123.044 36.696C123.044 37.0587 122.889 37.352 122.58 37.576C122.271 37.8 121.881 37.912 121.412 37.912C120.889 37.912 120.415 37.768 119.988 37.48C119.561 37.1813 119.225 36.7707 118.98 36.248L117.796 36.824C118.063 37.5493 118.516 38.1253 119.156 38.552C119.796 38.9787 120.548 39.192 121.412 39.192ZM131.245 39H132.669L134.717 32.504L136.765 39H138.189L141.149 30.376H139.517L137.437 36.696L135.421 30.376H134.013L131.997 36.696L129.933 30.376H128.285L131.245 39ZM142.48 29H143.968V27.08H142.48V29ZM142.48 39H143.968V30.376H142.48V39ZM146.277 39H147.765V26.888H146.277V39ZM150.074 39H151.562V26.888H150.074V39ZM160.748 42.52C161.548 42.52 162.258 42.3493 162.876 42.008C163.506 41.6773 163.996 41.2187 164.348 40.632C164.7 40.0453 164.876 39.3787 164.876 38.632V30.376H163.42V31.576C163.079 31.1387 162.658 30.7973 162.156 30.552C161.655 30.3067 161.1 30.184 160.492 30.184C159.682 30.184 158.956 30.376 158.316 30.76C157.687 31.1333 157.191 31.6453 156.828 32.296C156.466 32.9467 156.284 33.6773 156.284 34.488C156.284 35.2987 156.466 36.0293 156.828 36.68C157.202 37.3307 157.703 37.848 158.332 38.232C158.972 38.6053 159.698 38.792 160.508 38.792C161.095 38.792 161.639 38.6747 162.14 38.44C162.642 38.2053 163.052 37.8693 163.372 37.432V38.632C163.372 39.1547 163.25 39.5973 163.004 39.96C162.77 40.3333 162.455 40.6107 162.06 40.792C161.666 40.984 161.223 41.08 160.732 41.08C160.092 41.08 159.559 40.936 159.132 40.648C158.716 40.3707 158.434 40.0293 158.284 39.624L156.892 40.264C157.18 40.936 157.666 41.48 158.348 41.896C159.031 42.312 159.831 42.52 160.748 42.52ZM160.636 37.352C160.103 37.352 159.623 37.224 159.196 36.968C158.78 36.712 158.45 36.3707 158.204 35.944C157.97 35.5067 157.852 35.0213 157.852 34.488C157.852 33.9547 157.975 33.4747 158.22 33.048C158.466 32.6107 158.796 32.264 159.212 32.008C159.639 31.752 160.114 31.624 160.636 31.624C161.148 31.624 161.612 31.752 162.028 32.008C162.444 32.264 162.77 32.6107 163.004 33.048C163.25 33.4747 163.372 33.9547 163.372 34.488C163.372 35.0107 163.25 35.4907 163.004 35.928C162.77 36.3653 162.444 36.712 162.028 36.968C161.612 37.224 161.148 37.352 160.636 37.352ZM167.183 29H168.671V27.08H167.183V29ZM167.183 39H168.671V30.376H167.183V39ZM173.38 39H174.788L178.18 30.376H176.516L174.084 36.904L171.668 30.376H170.004L173.38 39ZM183.323 39.192C184.208 39.192 184.976 38.984 185.627 38.568C186.278 38.152 186.736 37.6453 187.003 37.048L185.755 36.408C185.51 36.824 185.19 37.1653 184.795 37.432C184.4 37.6987 183.915 37.832 183.339 37.832C182.859 37.832 182.411 37.7253 181.995 37.512C181.59 37.288 181.254 36.9733 180.987 36.568C180.731 36.1627 180.592 35.6827 180.571 35.128H187.163C187.216 34.84 187.243 34.5733 187.243 34.328C187.243 33.6133 187.083 32.9413 186.763 32.312C186.443 31.6827 185.979 31.1707 185.371 30.776C184.774 30.3813 184.048 30.184 183.195 30.184C182.395 30.184 181.68 30.376 181.051 30.76C180.422 31.144 179.92 31.6773 179.547 32.36C179.184 33.032 179.003 33.8 179.003 34.664C179.003 35.528 179.19 36.3013 179.563 36.984C179.936 37.6667 180.448 38.2053 181.099 38.6C181.75 38.9947 182.491 39.192 183.323 39.192ZM183.195 31.512C183.632 31.512 184.032 31.6133 184.395 31.816C184.758 32.008 185.051 32.28 185.275 32.632C185.499 32.984 185.616 33.3893 185.627 33.848H180.603C180.71 33.1227 181.008 32.552 181.499 32.136C181.99 31.72 182.555 31.512 183.195 31.512ZM192.413 42.52C192.978 42.52 193.458 42.408 193.853 42.184C194.258 41.96 194.6 41.656 194.877 41.272C195.165 40.8987 195.4 40.4827 195.581 40.024L199.469 30.376H197.821L195.213 37.112L192.589 30.376H190.973L194.397 39.016L194.141 39.64C193.906 40.1733 193.656 40.552 193.389 40.776C193.133 41 192.754 41.112 192.253 41.112C192.082 41.112 191.906 41.096 191.725 41.064C191.554 41.0427 191.41 41.0213 191.293 41V42.328C191.464 42.4027 191.645 42.4507 191.837 42.472C192.029 42.504 192.221 42.52 192.413 42.52ZM204.732 39.192C205.543 39.192 206.284 39 206.956 38.616C207.628 38.232 208.162 37.6987 208.556 37.016C208.962 36.3333 209.164 35.5547 209.164 34.68C209.164 33.816 208.967 33.048 208.572 32.376C208.188 31.6933 207.66 31.16 206.988 30.776C206.316 30.3813 205.564 30.184 204.732 30.184C203.89 30.184 203.132 30.3813 202.46 30.776C201.788 31.16 201.255 31.6933 200.86 32.376C200.476 33.048 200.284 33.816 200.284 34.68C200.284 35.544 200.482 36.3173 200.876 37C201.271 37.6827 201.804 38.2213 202.476 38.616C203.148 39 203.9 39.192 204.732 39.192ZM204.732 37.752C204.188 37.752 203.698 37.6187 203.26 37.352C202.834 37.0853 202.492 36.7227 202.236 36.264C201.98 35.7947 201.852 35.2667 201.852 34.68C201.852 34.0933 201.98 33.5707 202.236 33.112C202.492 32.6533 202.834 32.2907 203.26 32.024C203.698 31.7573 204.188 31.624 204.732 31.624C205.266 31.624 205.746 31.7573 206.172 32.024C206.61 32.2907 206.951 32.6533 207.196 33.112C207.452 33.5707 207.58 34.0933 207.58 34.68C207.58 35.2667 207.452 35.7947 207.196 36.264C206.951 36.7227 206.61 37.0853 206.172 37.352C205.746 37.6187 205.266 37.752 204.732 37.752ZM214.161 39.192C214.694 39.192 215.174 39.0853 215.601 38.872C216.028 38.648 216.369 38.3387 216.625 37.944V39H218.081V30.376H216.577V35.48C216.577 36.184 216.38 36.7387 215.985 37.144C215.601 37.5493 215.105 37.752 214.497 37.752C213.878 37.752 213.377 37.56 212.993 37.176C212.609 36.7813 212.417 36.2587 212.417 35.608V30.376H210.929V35.768C210.929 36.44 211.068 37.0373 211.345 37.56C211.622 38.072 212.001 38.472 212.481 38.76C212.972 39.048 213.532 39.192 214.161 39.192ZM226.656 39.096C226.773 39.096 226.917 39.0907 227.088 39.08C227.259 39.0693 227.413 39.048 227.552 39.016V37.688C227.456 37.6987 227.355 37.7093 227.248 37.72C227.141 37.7307 227.045 37.736 226.96 37.736C226.437 37.736 226.064 37.608 225.84 37.352C225.627 37.0853 225.52 36.7333 225.52 36.296V31.8H227.456V30.376H225.52V28.392H224.032V29.096C224.032 29.4907 223.92 29.8053 223.696 30.04C223.472 30.264 223.168 30.376 222.784 30.376H222.464V31.8H224.032V36.344C224.032 37.2187 224.256 37.896 224.704 38.376C225.163 38.856 225.813 39.096 226.656 39.096ZM229.496 39H230.984V33.896C230.984 33.192 231.181 32.6373 231.576 32.232C231.981 31.8267 232.482 31.624 233.08 31.624C233.677 31.624 234.168 31.8267 234.552 32.232C234.946 32.6267 235.144 33.1813 235.144 33.896V39H236.648V33.416C236.648 32.7973 236.504 32.248 236.216 31.768C235.938 31.2773 235.554 30.8933 235.064 30.616C234.584 30.328 234.034 30.184 233.416 30.184C232.893 30.184 232.418 30.2907 231.992 30.504C231.576 30.7067 231.24 31 230.984 31.384V26.888H229.496V39ZM242.745 39.192C243.63 39.192 244.398 38.984 245.049 38.568C245.7 38.152 246.158 37.6453 246.425 37.048L245.177 36.408C244.932 36.824 244.612 37.1653 244.217 37.432C243.822 37.6987 243.337 37.832 242.761 37.832C242.281 37.832 241.833 37.7253 241.417 37.512C241.012 37.288 240.676 36.9733 240.409 36.568C240.153 36.1627 240.014 35.6827 239.993 35.128H246.585C246.638 34.84 246.665 34.5733 246.665 34.328C246.665 33.6133 246.505 32.9413 246.185 32.312C245.865 31.6827 245.401 31.1707 244.793 30.776C244.196 30.3813 243.47 30.184 242.617 30.184C241.817 30.184 241.102 30.376 240.473 30.76C239.844 31.144 239.342 31.6773 238.969 32.36C238.606 33.032 238.425 33.8 238.425 34.664C238.425 35.528 238.612 36.3013 238.985 36.984C239.358 37.6667 239.87 38.2053 240.521 38.6C241.172 38.9947 241.913 39.192 242.745 39.192ZM242.617 31.512C243.054 31.512 243.454 31.6133 243.817 31.816C244.18 32.008 244.473 32.28 244.697 32.632C244.921 32.984 245.038 33.3893 245.049 33.848H240.025C240.132 33.1227 240.43 32.552 240.921 32.136C241.412 31.72 241.977 31.512 242.617 31.512ZM251.371 39H252.859V36.408L254.331 34.856L257.195 39H258.955L255.419 33.848L258.731 30.376H256.827L252.859 34.424V26.888H251.371V39ZM260.293 39H261.781V33.896C261.781 33.192 261.978 32.6373 262.373 32.232C262.767 31.8267 263.269 31.624 263.877 31.624C264.485 31.624 264.981 31.8267 265.365 32.232C265.749 32.6267 265.941 33.1813 265.941 33.896V39H267.445V33.416C267.445 32.7973 267.301 32.248 267.013 31.768C266.735 31.2773 266.351 30.8933 265.861 30.616C265.381 30.328 264.831 30.184 264.213 30.184C263.679 30.184 263.199 30.296 262.773 30.52C262.346 30.7333 262.005 31.0373 261.749 31.432V30.376H260.293V39ZM273.67 39.192C274.481 39.192 275.222 39 275.894 38.616C276.566 38.232 277.099 37.6987 277.494 37.016C277.899 36.3333 278.102 35.5547 278.102 34.68C278.102 33.816 277.905 33.048 277.51 32.376C277.126 31.6933 276.598 31.16 275.926 30.776C275.254 30.3813 274.502 30.184 273.67 30.184C272.827 30.184 272.07 30.3813 271.398 30.776C270.726 31.16 270.193 31.6933 269.798 32.376C269.414 33.048 269.222 33.816 269.222 34.68C269.222 35.544 269.419 36.3173 269.814 37C270.209 37.6827 270.742 38.2213 271.414 38.616C272.086 39 272.838 39.192 273.67 39.192ZM273.67 37.752C273.126 37.752 272.635 37.6187 272.198 37.352C271.771 37.0853 271.43 36.7227 271.174 36.264C270.918 35.7947 270.79 35.2667 270.79 34.68C270.79 34.0933 270.918 33.5707 271.174 33.112C271.43 32.6533 271.771 32.2907 272.198 32.024C272.635 31.7573 273.126 31.624 273.67 31.624C274.203 31.624 274.683 31.7573 275.11 32.024C275.547 32.2907 275.889 32.6533 276.134 33.112C276.39 33.5707 276.518 34.0933 276.518 34.68C276.518 35.2667 276.39 35.7947 276.134 36.264C275.889 36.7227 275.547 37.0853 275.11 37.352C274.683 37.6187 274.203 37.752 273.67 37.752ZM281.87 39H283.294L285.342 32.504L287.39 39H288.814L291.774 30.376H290.142L288.062 36.696L286.046 30.376H284.638L282.622 36.696L280.558 30.376H278.91L281.87 39ZM293.105 39H294.593V26.888H293.105V39ZM300.87 39.192C301.755 39.192 302.523 38.984 303.174 38.568C303.825 38.152 304.283 37.6453 304.55 37.048L303.302 36.408C303.057 36.824 302.737 37.1653 302.342 37.432C301.947 37.6987 301.462 37.832 300.886 37.832C300.406 37.832 299.958 37.7253 299.542 37.512C299.137 37.288 298.801 36.9733 298.534 36.568C298.278 36.1627 298.139 35.6827 298.118 35.128H304.71C304.763 34.84 304.79 34.5733 304.79 34.328C304.79 33.6133 304.63 32.9413 304.31 32.312C303.99 31.6827 303.526 31.1707 302.918 30.776C302.321 30.3813 301.595 30.184 300.742 30.184C299.942 30.184 299.227 30.376 298.598 30.76C297.969 31.144 297.467 31.6773 297.094 32.36C296.731 33.032 296.55 33.8 296.55 34.664C296.55 35.528 296.737 36.3013 297.11 36.984C297.483 37.6667 297.995 38.2053 298.646 38.6C299.297 38.9947 300.038 39.192 300.87 39.192ZM300.742 31.512C301.179 31.512 301.579 31.6133 301.942 31.816C302.305 32.008 302.598 32.28 302.822 32.632C303.046 32.984 303.163 33.3893 303.174 33.848H298.15C298.257 33.1227 298.555 32.552 299.046 32.136C299.537 31.72 300.102 31.512 300.742 31.512ZM310.65 39.192C311.29 39.192 311.871 39.0693 312.394 38.824C312.927 38.568 313.354 38.2053 313.674 37.736V39H315.13V26.888H313.626V31.528C313.295 31.1013 312.874 30.7707 312.362 30.536C311.85 30.3013 311.279 30.184 310.65 30.184C309.839 30.184 309.109 30.3813 308.458 30.776C307.818 31.1707 307.311 31.7093 306.938 32.392C306.565 33.064 306.378 33.832 306.378 34.696C306.378 35.5493 306.565 36.3173 306.938 37C307.311 37.672 307.818 38.2053 308.458 38.6C309.109 38.9947 309.839 39.192 310.65 39.192ZM310.778 37.752C310.234 37.752 309.749 37.6187 309.322 37.352C308.895 37.0853 308.559 36.7227 308.314 36.264C308.069 35.7947 307.946 35.272 307.946 34.696C307.946 34.1093 308.069 33.5867 308.314 33.128C308.559 32.6587 308.895 32.2907 309.322 32.024C309.759 31.7573 310.245 31.624 310.778 31.624C311.322 31.624 311.807 31.7627 312.234 32.04C312.661 32.3067 312.997 32.6693 313.242 33.128C313.498 33.5867 313.626 34.1093 313.626 34.696C313.626 35.272 313.498 35.7947 313.242 36.264C312.997 36.7227 312.661 37.0853 312.234 37.352C311.807 37.6187 311.322 37.752 310.778 37.752ZM321.545 42.52C322.345 42.52 323.055 42.3493 323.673 42.008C324.303 41.6773 324.793 41.2187 325.145 40.632C325.497 40.0453 325.673 39.3787 325.673 38.632V30.376H324.217V31.576C323.876 31.1387 323.455 30.7973 322.953 30.552C322.452 30.3067 321.897 30.184 321.289 30.184C320.479 30.184 319.753 30.376 319.113 30.76C318.484 31.1333 317.988 31.6453 317.625 32.296C317.263 32.9467 317.081 33.6773 317.081 34.488C317.081 35.2987 317.263 36.0293 317.625 36.68C317.999 37.3307 318.5 37.848 319.129 38.232C319.769 38.6053 320.495 38.792 321.305 38.792C321.892 38.792 322.436 38.6747 322.937 38.44C323.439 38.2053 323.849 37.8693 324.169 37.432V38.632C324.169 39.1547 324.047 39.5973 323.801 39.96C323.567 40.3333 323.252 40.6107 322.857 40.792C322.463 40.984 322.02 41.08 321.529 41.08C320.889 41.08 320.356 40.936 319.929 40.648C319.513 40.3707 319.231 40.0293 319.081 39.624L317.689 40.264C317.977 40.936 318.463 41.48 319.145 41.896C319.828 42.312 320.628 42.52 321.545 42.52ZM321.433 37.352C320.9 37.352 320.42 37.224 319.993 36.968C319.577 36.712 319.247 36.3707 319.001 35.944C318.767 35.5067 318.649 35.0213 318.649 34.488C318.649 33.9547 318.772 33.4747 319.017 33.048C319.263 32.6107 319.593 32.264 320.009 32.008C320.436 31.752 320.911 31.624 321.433 31.624C321.945 31.624 322.409 31.752 322.825 32.008C323.241 32.264 323.567 32.6107 323.801 33.048C324.047 33.4747 324.169 33.9547 324.169 34.488C324.169 35.0107 324.047 35.4907 323.801 35.928C323.567 36.3653 323.241 36.712 322.825 36.968C322.409 37.224 321.945 37.352 321.433 37.352ZM331.948 39.192C332.833 39.192 333.601 38.984 334.252 38.568C334.903 38.152 335.361 37.6453 335.628 37.048L334.38 36.408C334.135 36.824 333.815 37.1653 333.42 37.432C333.025 37.6987 332.54 37.832 331.964 37.832C331.484 37.832 331.036 37.7253 330.62 37.512C330.215 37.288 329.879 36.9733 329.612 36.568C329.356 36.1627 329.217 35.6827 329.196 35.128H335.788C335.841 34.84 335.868 34.5733 335.868 34.328C335.868 33.6133 335.708 32.9413 335.388 32.312C335.068 31.6827 334.604 31.1707 333.996 30.776C333.399 30.3813 332.673 30.184 331.82 30.184C331.02 30.184 330.305 30.376 329.676 30.76C329.047 31.144 328.545 31.6773 328.172 32.36C327.809 33.032 327.628 33.8 327.628 34.664C327.628 35.528 327.815 36.3013 328.188 36.984C328.561 37.6667 329.073 38.2053 329.724 38.6C330.375 38.9947 331.116 39.192 331.948 39.192ZM331.82 31.512C332.257 31.512 332.657 31.6133 333.02 31.816C333.383 32.008 333.676 32.28 333.9 32.632C334.124 32.984 334.241 33.3893 334.252 33.848H329.228C329.335 33.1227 329.633 32.552 330.124 32.136C330.615 31.72 331.18 31.512 331.82 31.512ZM1.616 68.52C2.18133 68.52 2.66133 68.408 3.056 68.184C3.46133 67.96 3.80267 67.656 4.08 67.272C4.368 66.8987 4.60267 66.4827 4.784 66.024L8.672 56.376H7.024L4.416 63.112L1.792 56.376H0.176L3.6 65.016L3.344 65.64C3.10933 66.1733 2.85867 66.552 2.592 66.776C2.336 67 1.95733 67.112 1.456 67.112C1.28533 67.112 1.10933 67.096 0.928 67.064C0.757333 67.0427 0.613333 67.0213 0.496 67V68.328C0.666667 68.4027 0.848 68.4507 1.04 68.472C1.232 68.504 1.424 68.52 1.616 68.52ZM13.9355 65.192C14.7462 65.192 15.4875 65 16.1595 64.616C16.8315 64.232 17.3648 63.6987 17.7595 63.016C18.1648 62.3333 18.3675 61.5547 18.3675 60.68C18.3675 59.816 18.1702 59.048 17.7755 58.376C17.3915 57.6933 16.8635 57.16 16.1915 56.776C15.5195 56.3813 14.7675 56.184 13.9355 56.184C13.0928 56.184 12.3355 56.3813 11.6635 56.776C10.9915 57.16 10.4582 57.6933 10.0635 58.376C9.6795 59.048 9.4875 59.816 9.4875 60.68C9.4875 61.544 9.68483 62.3173 10.0795 63C10.4742 63.6827 11.0075 64.2213 11.6795 64.616C12.3515 65 13.1035 65.192 13.9355 65.192ZM13.9355 63.752C13.3915 63.752 12.9008 63.6187 12.4635 63.352C12.0368 63.0853 11.6955 62.7227 11.4395 62.264C11.1835 61.7947 11.0555 61.2667 11.0555 60.68C11.0555 60.0933 11.1835 59.5707 11.4395 59.112C11.6955 58.6533 12.0368 58.2907 12.4635 58.024C12.9008 57.7573 13.3915 57.624 13.9355 57.624C14.4688 57.624 14.9488 57.7573 15.3755 58.024C15.8128 58.2907 16.1542 58.6533 16.3995 59.112C16.6555 59.5707 16.7835 60.0933 16.7835 60.68C16.7835 61.2667 16.6555 61.7947 16.3995 62.264C16.1542 62.7227 15.8128 63.0853 15.3755 63.352C14.9488 63.6187 14.4688 63.752 13.9355 63.752ZM23.3643 65.192C23.8976 65.192 24.3776 65.0853 24.8043 64.872C25.2309 64.648 25.5723 64.3387 25.8283 63.944V65H27.2843V56.376H25.7803V61.48C25.7803 62.184 25.5829 62.7387 25.1883 63.144C24.8043 63.5493 24.3083 63.752 23.7003 63.752C23.0816 63.752 22.5803 63.56 22.1963 63.176C21.8123 62.7813 21.6203 62.2587 21.6203 61.608V56.376H20.1323V61.768C20.1323 62.44 20.2709 63.0373 20.5483 63.56C20.8256 64.072 21.2043 64.472 21.6843 64.76C22.1749 65.048 22.7349 65.192 23.3643 65.192ZM32.3551 65H33.8431V59.896C33.8431 59.192 34.0405 58.6373 34.4351 58.232C34.8298 57.8267 35.3311 57.624 35.9391 57.624C36.5471 57.624 37.0431 57.8267 37.4271 58.232C37.8111 58.6267 38.0031 59.1813 38.0031 59.896V65H39.5071V59.416C39.5071 58.7973 39.3631 58.248 39.0751 57.768C38.7978 57.2773 38.4138 56.8933 37.9231 56.616C37.4431 56.328 36.8938 56.184 36.2751 56.184C35.7418 56.184 35.2618 56.296 34.8351 56.52C34.4085 56.7333 34.0671 57.0373 33.8111 57.432V56.376H32.3551V65ZM45.6044 65.192C46.4897 65.192 47.2577 64.984 47.9084 64.568C48.559 64.152 49.0177 63.6453 49.2844 63.048L48.0364 62.408C47.791 62.824 47.471 63.1653 47.0764 63.432C46.6817 63.6987 46.1964 63.832 45.6204 63.832C45.1404 63.832 44.6924 63.7253 44.2764 63.512C43.871 63.288 43.535 62.9733 43.2684 62.568C43.0124 62.1627 42.8737 61.6827 42.8524 61.128H49.4444C49.4977 60.84 49.5244 60.5733 49.5244 60.328C49.5244 59.6133 49.3644 58.9413 49.0444 58.312C48.7244 57.6827 48.2604 57.1707 47.6524 56.776C47.055 56.3813 46.3297 56.184 45.4764 56.184C44.6764 56.184 43.9617 56.376 43.3324 56.76C42.703 57.144 42.2017 57.6773 41.8284 58.36C41.4657 59.032 41.2844 59.8 41.2844 60.664C41.2844 61.528 41.471 62.3013 41.8444 62.984C42.2177 63.6667 42.7297 64.2053 43.3804 64.6C44.031 64.9947 44.7724 65.192 45.6044 65.192ZM45.4764 57.512C45.9137 57.512 46.3137 57.6133 46.6764 57.816C47.039 58.008 47.3324 58.28 47.5564 58.632C47.7804 58.984 47.8977 59.3893 47.9084 59.848H42.8844C42.991 59.1227 43.2897 58.552 43.7804 58.136C44.271 57.72 44.8364 57.512 45.4764 57.512ZM55.4325 65.192C56.3178 65.192 57.0858 64.984 57.7365 64.568C58.3872 64.152 58.8458 63.6453 59.1125 63.048L57.8645 62.408C57.6192 62.824 57.2992 63.1653 56.9045 63.432C56.5098 63.6987 56.0245 63.832 55.4485 63.832C54.9685 63.832 54.5205 63.7253 54.1045 63.512C53.6992 63.288 53.3632 62.9733 53.0965 62.568C52.8405 62.1627 52.7018 61.6827 52.6805 61.128H59.2725C59.3258 60.84 59.3525 60.5733 59.3525 60.328C59.3525 59.6133 59.1925 58.9413 58.8725 58.312C58.5525 57.6827 58.0885 57.1707 57.4805 56.776C56.8832 56.3813 56.1578 56.184 55.3045 56.184C54.5045 56.184 53.7898 56.376 53.1605 56.76C52.5312 57.144 52.0298 57.6773 51.6565 58.36C51.2938 59.032 51.1125 59.8 51.1125 60.664C51.1125 61.528 51.2992 62.3013 51.6725 62.984C52.0458 63.6667 52.5578 64.2053 53.2085 64.6C53.8592 64.9947 54.6005 65.192 55.4325 65.192ZM55.3045 57.512C55.7418 57.512 56.1418 57.6133 56.5045 57.816C56.8672 58.008 57.1605 58.28 57.3845 58.632C57.6085 58.984 57.7258 59.3893 57.7365 59.848H52.7125C52.8192 59.1227 53.1178 58.552 53.6085 58.136C54.0992 57.72 54.6645 57.512 55.3045 57.512ZM65.2126 65.192C65.8526 65.192 66.434 65.0693 66.9566 64.824C67.49 64.568 67.9166 64.2053 68.2366 63.736V65H69.6926V52.888H68.1886V57.528C67.858 57.1013 67.4366 56.7707 66.9246 56.536C66.4126 56.3013 65.842 56.184 65.2126 56.184C64.402 56.184 63.6713 56.3813 63.0206 56.776C62.3806 57.1707 61.874 57.7093 61.5006 58.392C61.1273 59.064 60.9406 59.832 60.9406 60.696C60.9406 61.5493 61.1273 62.3173 61.5006 63C61.874 63.672 62.3806 64.2053 63.0206 64.6C63.6713 64.9947 64.402 65.192 65.2126 65.192ZM65.3406 63.752C64.7966 63.752 64.3113 63.6187 63.8846 63.352C63.458 63.0853 63.122 62.7227 62.8766 62.264C62.6313 61.7947 62.5086 61.272 62.5086 60.696C62.5086 60.1093 62.6313 59.5867 62.8766 59.128C63.122 58.6587 63.458 58.2907 63.8846 58.024C64.322 57.7573 64.8073 57.624 65.3406 57.624C65.8846 57.624 66.37 57.7627 66.7966 58.04C67.2233 58.3067 67.5593 58.6693 67.8046 59.128C68.0606 59.5867 68.1886 60.1093 68.1886 60.696C68.1886 61.272 68.0606 61.7947 67.8046 62.264C67.5593 62.7227 67.2233 63.0853 66.7966 63.352C66.37 63.6187 65.8846 63.752 65.3406 63.752ZM78.2654 65.096C78.3827 65.096 78.5267 65.0907 78.6974 65.08C78.868 65.0693 79.0227 65.048 79.1614 65.016V63.688C79.0654 63.6987 78.964 63.7093 78.8574 63.72C78.7507 63.7307 78.6547 63.736 78.5694 63.736C78.0467 63.736 77.6734 63.608 77.4494 63.352C77.236 63.0853 77.1294 62.7333 77.1294 62.296V57.8H79.0654V56.376H77.1294V54.392H75.6414V55.096C75.6414 55.4907 75.5294 55.8053 75.3054 56.04C75.0814 56.264 74.7774 56.376 74.3934 56.376H74.0734V57.8H75.6414V62.344C75.6414 63.2187 75.8654 63.896 76.3134 64.376C76.772 64.856 77.4227 65.096 78.2654 65.096ZM84.9668 65.192C85.7774 65.192 86.5188 65 87.1908 64.616C87.8628 64.232 88.3961 63.6987 88.7908 63.016C89.1961 62.3333 89.3988 61.5547 89.3988 60.68C89.3988 59.816 89.2014 59.048 88.8068 58.376C88.4228 57.6933 87.8948 57.16 87.2228 56.776C86.5508 56.3813 85.7988 56.184 84.9668 56.184C84.1241 56.184 83.3668 56.3813 82.6948 56.776C82.0228 57.16 81.4894 57.6933 81.0948 58.376C80.7108 59.048 80.5188 59.816 80.5188 60.68C80.5188 61.544 80.7161 62.3173 81.1108 63C81.5054 63.6827 82.0388 64.2213 82.7108 64.616C83.3828 65 84.1348 65.192 84.9668 65.192ZM84.9668 63.752C84.4228 63.752 83.9321 63.6187 83.4948 63.352C83.0681 63.0853 82.7268 62.7227 82.4708 62.264C82.2148 61.7947 82.0868 61.2667 82.0868 60.68C82.0868 60.0933 82.2148 59.5707 82.4708 59.112C82.7268 58.6533 83.0681 58.2907 83.4948 58.024C83.9321 57.7573 84.4228 57.624 84.9668 57.624C85.5001 57.624 85.9801 57.7573 86.4068 58.024C86.8441 58.2907 87.1854 58.6533 87.4308 59.112C87.6868 59.5707 87.8148 60.0933 87.8148 60.68C87.8148 61.2667 87.6868 61.7947 87.4308 62.264C87.1854 62.7227 86.8441 63.0853 86.4068 63.352C85.9801 63.6187 85.5001 63.752 84.9668 63.752ZM94.1051 65H95.5931V52.888H94.1051V65ZM97.902 55H99.39V53.08H97.902V55ZM97.902 65H99.39V56.376H97.902V65ZM104.099 65H105.507L108.899 56.376H107.235L104.803 62.904L102.387 56.376H100.723L104.099 65ZM114.042 65.192C114.927 65.192 115.695 64.984 116.346 64.568C116.997 64.152 117.455 63.6453 117.722 63.048L116.474 62.408C116.229 62.824 115.909 63.1653 115.514 63.432C115.119 63.6987 114.634 63.832 114.058 63.832C113.578 63.832 113.13 63.7253 112.714 63.512C112.309 63.288 111.973 62.9733 111.706 62.568C111.45 62.1627 111.311 61.6827 111.29 61.128H117.882C117.935 60.84 117.962 60.5733 117.962 60.328C117.962 59.6133 117.802 58.9413 117.482 58.312C117.162 57.6827 116.698 57.1707 116.09 56.776C115.493 56.3813 114.767 56.184 113.914 56.184C113.114 56.184 112.399 56.376 111.77 56.76C111.141 57.144 110.639 57.6773 110.266 58.36C109.903 59.032 109.722 59.8 109.722 60.664C109.722 61.528 109.909 62.3013 110.282 62.984C110.655 63.6667 111.167 64.2053 111.818 64.6C112.469 64.9947 113.21 65.192 114.042 65.192ZM113.914 57.512C114.351 57.512 114.751 57.6133 115.114 57.816C115.477 58.008 115.77 58.28 115.994 58.632C116.218 58.984 116.335 59.3893 116.346 59.848H111.322C111.429 59.1227 111.727 58.552 112.218 58.136C112.709 57.72 113.274 57.512 113.914 57.512ZM126.172 65.096C126.289 65.096 126.433 65.0907 126.604 65.08C126.774 65.0693 126.929 65.048 127.068 65.016V63.688C126.972 63.6987 126.87 63.7093 126.764 63.72C126.657 63.7307 126.561 63.736 126.476 63.736C125.953 63.736 125.58 63.608 125.356 63.352C125.142 63.0853 125.036 62.7333 125.036 62.296V57.8H126.972V56.376H125.036V54.392H123.548V55.096C123.548 55.4907 123.436 55.8053 123.212 56.04C122.988 56.264 122.684 56.376 122.3 56.376H121.98V57.8H123.548V62.344C123.548 63.2187 123.772 63.896 124.22 64.376C124.678 64.856 125.329 65.096 126.172 65.096ZM129.011 65H130.499V59.896C130.499 59.192 130.697 58.6373 131.091 58.232C131.497 57.8267 131.998 57.624 132.595 57.624C133.193 57.624 133.683 57.8267 134.067 58.232C134.462 58.6267 134.659 59.1813 134.659 59.896V65H136.163V59.416C136.163 58.7973 136.019 58.248 135.731 57.768C135.454 57.2773 135.07 56.8933 134.579 56.616C134.099 56.328 133.55 56.184 132.931 56.184C132.409 56.184 131.934 56.2907 131.507 56.504C131.091 56.7067 130.755 57 130.499 57.384V52.888H129.011V65ZM142.261 65.192C143.146 65.192 143.914 64.984 144.565 64.568C145.215 64.152 145.674 63.6453 145.941 63.048L144.693 62.408C144.447 62.824 144.127 63.1653 143.733 63.432C143.338 63.6987 142.853 63.832 142.277 63.832C141.797 63.832 141.349 63.7253 140.933 63.512C140.527 63.288 140.191 62.9733 139.925 62.568C139.669 62.1627 139.53 61.6827 139.509 61.128H146.101C146.154 60.84 146.181 60.5733 146.181 60.328C146.181 59.6133 146.021 58.9413 145.701 58.312C145.381 57.6827 144.917 57.1707 144.309 56.776C143.711 56.3813 142.986 56.184 142.133 56.184C141.333 56.184 140.618 56.376 139.989 56.76C139.359 57.144 138.858 57.6773 138.485 58.36C138.122 59.032 137.941 59.8 137.941 60.664C137.941 61.528 138.127 62.3013 138.501 62.984C138.874 63.6667 139.386 64.2053 140.037 64.6C140.687 64.9947 141.429 65.192 142.261 65.192ZM142.133 57.512C142.57 57.512 142.97 57.6133 143.333 57.816C143.695 58.008 143.989 58.28 144.213 58.632C144.437 58.984 144.554 59.3893 144.565 59.848H139.541C139.647 59.1227 139.946 58.552 140.437 58.136C140.927 57.72 141.493 57.512 142.133 57.512ZM150.886 65H152.374V52.888H150.886V65ZM154.683 55H156.171V53.08H154.683V55ZM154.683 65H156.171V56.376H154.683V65ZM159.392 65H160.896V57.8H162.944V56.376H160.896V55.768C160.896 55.2133 161.051 54.824 161.36 54.6C161.68 54.3653 162.085 54.248 162.576 54.248C162.64 54.248 162.731 54.2533 162.848 54.264C162.976 54.264 163.077 54.2747 163.152 54.296V52.968C163.056 52.9467 162.933 52.9307 162.784 52.92C162.645 52.8987 162.517 52.888 162.4 52.888C161.845 52.888 161.339 53 160.88 53.224C160.432 53.448 160.069 53.7733 159.792 54.2C159.525 54.6267 159.392 55.1493 159.392 55.768V56.376H157.744V57.8H159.392V65ZM168.401 65.192C169.287 65.192 170.055 64.984 170.705 64.568C171.356 64.152 171.815 63.6453 172.081 63.048L170.833 62.408C170.588 62.824 170.268 63.1653 169.873 63.432C169.479 63.6987 168.993 63.832 168.417 63.832C167.937 63.832 167.489 63.7253 167.073 63.512C166.668 63.288 166.332 62.9733 166.065 62.568C165.809 62.1627 165.671 61.6827 165.649 61.128H172.241C172.295 60.84 172.321 60.5733 172.321 60.328C172.321 59.6133 172.161 58.9413 171.841 58.312C171.521 57.6827 171.057 57.1707 170.449 56.776C169.852 56.3813 169.127 56.184 168.273 56.184C167.473 56.184 166.759 56.376 166.129 56.76C165.5 57.144 164.999 57.6773 164.625 58.36C164.263 59.032 164.081 59.8 164.081 60.664C164.081 61.528 164.268 62.3013 164.641 62.984C165.015 63.6667 165.527 64.2053 166.177 64.6C166.828 64.9947 167.569 65.192 168.401 65.192ZM168.273 57.512C168.711 57.512 169.111 57.6133 169.473 57.816C169.836 58.008 170.129 58.28 170.353 58.632C170.577 58.984 170.695 59.3893 170.705 59.848H165.681C165.788 59.1227 166.087 58.552 166.577 58.136C167.068 57.72 167.633 57.512 168.273 57.512ZM177.491 68.52C178.056 68.52 178.536 68.408 178.931 68.184C179.336 67.96 179.678 67.656 179.955 67.272C180.243 66.8987 180.478 66.4827 180.659 66.024L184.547 56.376H182.899L180.291 63.112L177.667 56.376H176.051L179.475 65.016L179.219 65.64C178.984 66.1733 178.734 66.552 178.467 66.776C178.211 67 177.832 67.112 177.331 67.112C177.16 67.112 176.984 67.096 176.803 67.064C176.632 67.0427 176.488 67.0213 176.371 67V68.328C176.542 68.4027 176.723 68.4507 176.915 68.472C177.107 68.504 177.299 68.52 177.491 68.52ZM189.811 65.192C190.621 65.192 191.363 65 192.035 64.616C192.707 64.232 193.24 63.6987 193.635 63.016C194.04 62.3333 194.243 61.5547 194.243 60.68C194.243 59.816 194.045 59.048 193.651 58.376C193.267 57.6933 192.739 57.16 192.067 56.776C191.395 56.3813 190.643 56.184 189.811 56.184C188.968 56.184 188.211 56.3813 187.539 56.776C186.867 57.16 186.333 57.6933 185.939 58.376C185.555 59.048 185.363 59.816 185.363 60.68C185.363 61.544 185.56 62.3173 185.955 63C186.349 63.6827 186.883 64.2213 187.555 64.616C188.227 65 188.979 65.192 189.811 65.192ZM189.811 63.752C189.267 63.752 188.776 63.6187 188.339 63.352C187.912 63.0853 187.571 62.7227 187.315 62.264C187.059 61.7947 186.931 61.2667 186.931 60.68C186.931 60.0933 187.059 59.5707 187.315 59.112C187.571 58.6533 187.912 58.2907 188.339 58.024C188.776 57.7573 189.267 57.624 189.811 57.624C190.344 57.624 190.824 57.7573 191.251 58.024C191.688 58.2907 192.029 58.6533 192.275 59.112C192.531 59.5707 192.659 60.0933 192.659 60.68C192.659 61.2667 192.531 61.7947 192.275 62.264C192.029 62.7227 191.688 63.0853 191.251 63.352C190.824 63.6187 190.344 63.752 189.811 63.752ZM199.239 65.192C199.773 65.192 200.253 65.0853 200.679 64.872C201.106 64.648 201.447 64.3387 201.703 63.944V65H203.159V56.376H201.655V61.48C201.655 62.184 201.458 62.7387 201.063 63.144C200.679 63.5493 200.183 63.752 199.575 63.752C198.957 63.752 198.455 63.56 198.071 63.176C197.687 62.7813 197.495 62.2587 197.495 61.608V56.376H196.007V61.768C196.007 62.44 196.146 63.0373 196.423 63.56C196.701 64.072 197.079 64.472 197.559 64.76C198.05 65.048 198.61 65.192 199.239 65.192ZM210.214 65H211.638L213.686 58.504L215.734 65H217.158L220.118 56.376H218.486L216.406 62.696L214.39 56.376H212.982L210.966 62.696L208.902 56.376H207.254L210.214 65ZM223.664 65.192C224.294 65.192 224.859 65.0747 225.36 64.84C225.862 64.5947 226.267 64.2747 226.576 63.88V65H228.032V59.144C228.032 58.5573 227.888 58.0453 227.6 57.608C227.323 57.16 226.934 56.8133 226.432 56.568C225.931 56.312 225.35 56.184 224.688 56.184C224.176 56.184 223.686 56.2747 223.216 56.456C222.747 56.6373 222.336 56.888 221.984 57.208C221.632 57.5173 221.376 57.8693 221.216 58.264L222.512 58.936C222.694 58.5307 222.971 58.2 223.344 57.944C223.718 57.688 224.155 57.56 224.656 57.56C225.222 57.56 225.675 57.7093 226.016 58.008C226.368 58.296 226.544 58.6747 226.544 59.144V59.544L223.6 60.024C222.63 60.184 221.915 60.5093 221.456 61C221.008 61.48 220.784 62.0613 220.784 62.744C220.784 63.4693 221.051 64.0613 221.584 64.52C222.128 64.968 222.822 65.192 223.664 65.192ZM222.352 62.696C222.352 62.3227 222.475 62.008 222.72 61.752C222.976 61.496 223.382 61.32 223.936 61.224L226.544 60.792V61.336C226.544 61.816 226.432 62.2533 226.208 62.648C225.984 63.0427 225.67 63.3573 225.264 63.592C224.859 63.816 224.384 63.928 223.84 63.928C223.414 63.928 223.056 63.8107 222.768 63.576C222.491 63.3413 222.352 63.048 222.352 62.696ZM230.34 65H231.828V59.896C231.828 59.192 232.025 58.6373 232.42 58.232C232.814 57.8267 233.316 57.624 233.924 57.624C234.532 57.624 235.028 57.8267 235.412 58.232C235.796 58.6267 235.988 59.1813 235.988 59.896V65H237.492V59.416C237.492 58.7973 237.348 58.248 237.06 57.768C236.782 57.2773 236.398 56.8933 235.908 56.616C235.428 56.328 234.878 56.184 234.26 56.184C233.726 56.184 233.246 56.296 232.82 56.52C232.393 56.7333 232.052 57.0373 231.796 57.432V56.376H230.34V65ZM243.125 65.096C243.242 65.096 243.386 65.0907 243.557 65.08C243.727 65.0693 243.882 65.048 244.021 65.016V63.688C243.925 63.6987 243.823 63.7093 243.717 63.72C243.61 63.7307 243.514 63.736 243.429 63.736C242.906 63.736 242.533 63.608 242.309 63.352C242.095 63.0853 241.989 62.7333 241.989 62.296V57.8H243.925V56.376H241.989V54.392H240.501V55.096C240.501 55.4907 240.389 55.8053 240.165 56.04C239.941 56.264 239.637 56.376 239.253 56.376H238.933V57.8H240.501V62.344C240.501 63.2187 240.725 63.896 241.173 64.376C241.631 64.856 242.282 65.096 243.125 65.096ZM246.573 65H248.125V63.08H246.573V65Z" fill="#83869A"/>
</svg>
